999
dxflib 3.7.5.0
  0
SECTION
  2
HEADER
  9
$ACADVER
  1
AC1015
  9
$HANDSEED
  5
FFFF
  9
$AUNITS
 70
0
  9
$AUPREC
 70
2
  9
$DIMADEC
 70
0
  9
$DIMASZ
 40
2.5
  9
$DIMAUNIT
 70
0
  9
$DIMAZIN
 70
0
  9
$DIMDEC
 70
4
  9
$DIMEXE
 40
1.25
  9
$DIMEXO
 40
0.625
  9
$DIMGAP
 40
0.625
  9
$DIMLFAC
 40
1.0
  9
$DIMLUNIT
 70
2
  9
$DIMSCALE
 40
1.0
  9
$DIMTIH
 70
0
  9
$DIMTSZ
 40
0.0
  9
$DIMTXT
 40
2.5
  9
$DIMZIN
 70
0
  9
$DWGCODEPAGE
  3
ANSI_1252
  9
$EXTMAX
 10
40.333333333299997
 20
72.0
 30
0.0
  9
$EXTMIN
 10
-40.333333333299997
 20
-72.0
 30
0.0
  9
$INSBASE
 10
0.0
 20
0.0
 30
0.0
  9
$INSUNITS
 70
4
  9
$LIMMAX
 10
420.0
 20
297.0
  9
$LIMMIN
 10
0.0
 20
0.0
  9
$LTSCALE
 40
1
  9
$LUNITS
 70
2
  9
$LUPREC
 70
4
  9
$ORTHOMODE
 70
0
  9
$PINSBASE
 10
105.0
 20
148.5
 30
0.0
  9
$PLIMMAX
 10
210.0
 20
297.0
  9
$PLIMMIN
 10
0.0
 20
0.0
  9
$SPLINESEGS
 70
8
  9
$TEXTSTYLE
  7
STANDARD
  0
ENDSEC
  0
SECTION
  2
TABLES
  0
TABLE
  2
VPORT
  5
8
100
AcDbSymbolTable
 70
1
  0
VPORT
  5
30
100
AcDbSymbolTableRecord
100
AcDbViewportTableRecord
  2
*Active
 70
0
 10
0.0
 20
0.0
 11
1.0
 21
1.0
 12
286.3055555555554861
 22
148.5
 13
0.0
 23
0.0
 14
10.0
 24
10.0
 15
10.0
 25
10.0
 16
0.0
 26
0.0
 36
1.0
 17
0.0
 27
0.0
 37
0.0
 40
297.0
 41
1.92798353909465
 42
50.0
 43
0.0
 44
0.0
 50
0.0
 51
0.0
 71
0
 72
100
 73
1
 74
3
 75
1
 76
1
 77
0
 78
0
281
0
 65
1
110
0.0
120
0.0
130
0.0
111
1.0
121
0.0
131
0.0
112
0.0
122
1.0
132
0.0
 79
0
146
0.0
  0
ENDTAB
  0
TABLE
  2
LTYPE
  5
5
100
AcDbSymbolTable
 70
41
  0
LTYPE
  5
16
100
AcDbSymbolTableRecord
100
AcDbLinetypeTableRecord
  2
Continuous
 70
0
  3
Solid line
 72
65
 73
0
 40
0.0
  0
LTYPE
  5
31
100
AcDbSymbolTableRecord
100
AcDbLinetypeTableRecord
  2
ACAD_ISO15W100
 70
0
  3
ISO double-dash triple-dot __ __ . . . __ __ . .
 72
65
 73
10
 40
39.0000000000000071
 49
12.0
 74
0
 49
-3.0
 74
0
 49
12.0
 74
0
 49
-2.9500000000000002
 74
0
 49
0.1
 74
0
 49
-2.9000000000000004
 74
0
 49
0.1
 74
0
 49
-2.9000000000000004
 74
0
 49
0.1
 74
0
 49
-2.9500000000000002
 74
0
  0
LTYPE
  5
32
100
AcDbSymbolTableRecord
100
AcDbLinetypeTableRecord
  2
DIVIDE
 70
0
  3
Divide ____ . . ____ . . ____ . . ____ . . ____
 72
65
 73
6
 40
31.7500000000000036
 49
12.6999999999999993
 74
0
 49
-6.2999999999999998
 74
0
 49
0.1
 74
0
 49
-6.25
 74
0
 49
0.1
 74
0
 49
-6.2999999999999998
 74
0
  0
LTYPE
  5
33
100
AcDbSymbolTableRecord
100
AcDbLinetypeTableRecord
  2
ACAD_ISO10W100
 70
0
  3
ISO dash dot __ . __ . __ . __ . __ . __ . __ . 
 72
65
 73
4
 40
18.0
 49
12.0
 74
0
 49
-2.9500000000000002
 74
0
 49
0.1
 74
0
 49
-2.9500000000000002
 74
0
  0
LTYPE
  5
34
100
AcDbSymbolTableRecord
100
AcDbLinetypeTableRecord
  2
ACAD_ISO04W100
 70
0
  3
ISO long-dash dot ____ . ____ . ____ . ____ . _
 72
65
 73
4
 40
30.0
 49
24.0
 74
0
 49
-2.9500000000000002
 74
0
 49
0.1
 74
0
 49
-2.9500000000000002
 74
0
  0
LTYPE
  5
14
100
AcDbSymbolTableRecord
100
AcDbLinetypeTableRecord
  2
ByBlock
 70
0
  3

 72
65
 73
0
 40
0.0
  0
LTYPE
  5
35
100
AcDbSymbolTableRecord
100
AcDbLinetypeTableRecord
  2
CENTER2
 70
0
  3
Center (.5x) ___ _ ___ _ ___ _ ___ _ ___ _ ___
 72
65
 73
4
 40
28.5750000000000028
 49
19.0500000000000007
 74
0
 49
-3.1749999999999998
 74
0
 49
3.1749999999999998
 74
0
 49
-3.1749999999999998
 74
0
  0
LTYPE
  5
36
100
AcDbSymbolTableRecord
100
AcDbLinetypeTableRecord
  2
ACAD_ISO11W100
 70
0
  3
ISO double-dash dot __ __ . __ __ . __ __ . __ _
 72
65
 73
6
 40
33.0
 49
12.0
 74
0
 49
-3.0
 74
0
 49
12.0
 74
0
 49
-2.9500000000000002
 74
0
 49
0.1
 74
0
 49
-2.9500000000000002
 74
0
  0
LTYPE
  5
37
100
AcDbSymbolTableRecord
100
AcDbLinetypeTableRecord
  2
HIDDEN2
 70
0
  3
Hidden (.5x) _ _ _ _ _ _ _ _ _ _ _ _ _ _ _ _ _ 
 72
65
 73
2
 40
4.7624999999999993
 49
3.1749999999999998
 74
0
 49
-1.5874999999999999
 74
0
  0
LTYPE
  5
38
100
AcDbSymbolTableRecord
100
AcDbLinetypeTableRecord
  2
BORDERX2
 70
0
  3
Border (2x) ____  ____  .  ____  ____  .  ___
 72
65
 73
6
 40
88.8999999999999773
 49
25.3999999999999986
 74
0
 49
-12.6999999999999993
 74
0
 49
25.3999999999999986
 74
0
 49
-12.6499999999999986
 74
0
 49
0.1
 74
0
 49
-12.6499999999999986
 74
0
  0
LTYPE
  5
39
100
AcDbSymbolTableRecord
100
AcDbLinetypeTableRecord
  2
ACAD_ISO05W100
 70
0
  3
ISO long-dash double-dot ____ .. ____ .. ____ . 
 72
65
 73
6
 40
33.0000000000000071
 49
24.0
 74
0
 49
-2.9500000000000002
 74
0
 49
0.1
 74
0
 49
-2.9000000000000004
 74
0
 49
0.1
 74
0
 49
-2.9500000000000002
 74
0
  0
LTYPE
  5
3A
100
AcDbSymbolTableRecord
100
AcDbLinetypeTableRecord
  2
DASHDOTX2
 70
0
  3
Dash dot (2x) ____  .  ____  .  ____  .  ___
 72
65
 73
4
 40
50.7999999999999972
 49
25.3999999999999986
 74
0
 49
-12.6499999999999986
 74
0
 49
0.1
 74
0
 49
-12.6499999999999986
 74
0
  0
LTYPE
  5
3B
100
AcDbSymbolTableRecord
100
AcDbLinetypeTableRecord
  2
HIDDENX2
 70
0
  3
Hidden (2x) ____ ____ ____ ____ ____ ____ ____ 
 72
65
 73
2
 40
19.0499999999999972
 49
12.6999999999999993
 74
0
 49
-6.3499999999999996
 74
0
  0
LTYPE
  5
3C
100
AcDbSymbolTableRecord
100
AcDbLinetypeTableRecord
  2
CENTERX2
 70
0
  3
Center (2x) ________  __  ________  __  _____
 72
65
 73
4
 40
101.6000000000000085
 49
63.5
 74
0
 49
-12.6999999999999993
 74
0
 49
12.6999999999999993
 74
0
 49
-12.6999999999999993
 74
0
  0
LTYPE
  5
3D
100
AcDbSymbolTableRecord
100
AcDbLinetypeTableRecord
  2
BORDER2
 70
0
  3
Border (.5x) __.__.__.__.__.__.__.__.__.__.__.
 72
65
 73
6
 40
22.2250000000000014
 49
6.3499999999999996
 74
0
 49
-3.1749999999999998
 74
0
 49
6.3499999999999996
 74
0
 49
-3.125
 74
0
 49
0.1
 74
0
 49
-3.125
 74
0
  0
LTYPE
  5
3E
100
AcDbSymbolTableRecord
100
AcDbLinetypeTableRecord
  2
DASHDOT2
 70
0
  3
Dash dot (.5x) _._._._._._._._._._._._._._._.
 72
65
 73
4
 40
12.6999999999999993
 49
6.3499999999999996
 74
0
 49
-3.125
 74
0
 49
0.1
 74
0
 49
-3.125
 74
0
  0
LTYPE
  5
3F
100
AcDbSymbolTableRecord
100
AcDbLinetypeTableRecord
  2
ACAD_ISO12W100
 70
0
  3
ISO dash double-dot __ . . __ . . __ . . __ . . 
 72
65
 73
6
 40
21.0
 49
12.0
 74
0
 49
-2.9500000000000002
 74
0
 49
0.1
 74
0
 49
-2.9000000000000004
 74
0
 49
0.1
 74
0
 49
-2.9500000000000002
 74
0
  0
LTYPE
  5
40
100
AcDbSymbolTableRecord
100
AcDbLinetypeTableRecord
  2
ACAD_ISO07W100
 70
0
  3
ISO dot . . . . . . . . . . . . . . . . . . . . 
 72
65
 73
2
 40
3.0
 49
0.1
 74
0
 49
-2.8999999999999999
 74
0
  0
LTYPE
  5
41
100
AcDbSymbolTableRecord
100
AcDbLinetypeTableRecord
  2
HIDDEN
 70
0
  3
Hidden __ __ __ __ __ __ __ __ __ __ __ __ __ __
 72
65
 73
2
 40
9.5249999999999986
 49
6.3499999999999996
 74
0
 49
-3.1749999999999998
 74
0
  0
LTYPE
  5
42
100
AcDbSymbolTableRecord
100
AcDbLinetypeTableRecord
  2
ACAD_ISO06W100
 70
0
  3
ISO long-dash triple-dot ____ ... ____ ... ____
 72
65
 73
8
 40
36.0000000000000071
 49
24.0
 74
0
 49
-2.9500000000000002
 74
0
 49
0.1
 74
0
 49
-2.9000000000000004
 74
0
 49
0.1
 74
0
 49
-2.9000000000000004
 74
0
 49
0.1
 74
0
 49
-2.9500000000000002
 74
0
  0
LTYPE
  5
43
100
AcDbSymbolTableRecord
100
AcDbLinetypeTableRecord
  2
CENTER
 70
0
  3
Center ____ _ ____ _ ____ _ ____ _ ____ _ ____
 72
65
 73
4
 40
50.8000000000000043
 49
31.75
 74
0
 49
-6.3499999999999996
 74
0
 49
6.3499999999999996
 74
0
 49
-6.3499999999999996
 74
0
  0
LTYPE
  5
44
100
AcDbSymbolTableRecord
100
AcDbLinetypeTableRecord
  2
DOTX2
 70
0
  3
Dot (2x) .  .  .  .  .  .  .  .  .  .  .  .  .
 72
65
 73
2
 40
12.6999999999999993
 49
0.1
 74
0
 49
-12.5999999999999996
 74
0
  0
LTYPE
  5
45
100
AcDbSymbolTableRecord
100
AcDbLinetypeTableRecord
  2
PHANTOM
 70
0
  3
Phantom ______  __  __  ______  __  __  ______ 
 72
65
 73
6
 40
63.5000000000000071
 49
31.75
 74
0
 49
-6.3499999999999996
 74
0
 49
6.3499999999999996
 74
0
 49
-6.3499999999999996
 74
0
 49
6.3499999999999996
 74
0
 49
-6.3499999999999996
 74
0
  0
LTYPE
  5
46
100
AcDbSymbolTableRecord
100
AcDbLinetypeTableRecord
  2
ACAD_ISO08W100
 70
0
  3
ISO long-dash short-dash ____ __ ____ __ ____ _
 72
65
 73
4
 40
36.0
 49
24.0
 74
0
 49
-3.0
 74
0
 49
6.0
 74
0
 49
-3.0
 74
0
  0
LTYPE
  5
47
100
AcDbSymbolTableRecord
100
AcDbLinetypeTableRecord
  2
DASHEDX2
 70
0
  3
Dashed (2x) ____  ____  ____  ____  ____  ___
 72
65
 73
2
 40
38.0999999999999943
 49
25.3999999999999986
 74
0
 49
-12.6999999999999993
 74
0
  0
LTYPE
  5
48
100
AcDbSymbolTableRecord
100
AcDbLinetypeTableRecord
  2
ACAD_ISO02W100
 70
0
  3
ISO dash __ __ __ __ __ __ __ __ __ __ __ __ __
 72
65
 73
2
 40
15.0
 49
12.0
 74
0
 49
-3.0
 74
0
  0
LTYPE
  5
49
100
AcDbSymbolTableRecord
100
AcDbLinetypeTableRecord
  2
PHANTOM2
 70
0
  3
Phantom (.5x) ___ _ _ ___ _ _ ___ _ _ ___ _ _
 72
65
 73
6
 40
31.7500000000000036
 49
15.875
 74
0
 49
-3.1749999999999998
 74
0
 49
3.1749999999999998
 74
0
 49
-3.1749999999999998
 74
0
 49
3.1749999999999998
 74
0
 49
-3.1749999999999998
 74
0
  0
LTYPE
  5
4A
100
AcDbSymbolTableRecord
100
AcDbLinetypeTableRecord
  2
DASHED2
 70
0
  3
Dashed (.5x) _ _ _ _ _ _ _ _ _ _ _ _ _ _ _ _ _
 72
65
 73
2
 40
9.5249999999999986
 49
6.3499999999999996
 74
0
 49
-3.1749999999999998
 74
0
  0
LTYPE
  5
4B
100
AcDbSymbolTableRecord
100
AcDbLinetypeTableRecord
  2
ACAD_ISO09W100
 70
0
  3
ISO long-dash double-short-dash ____ __ __ ____
 72
65
 73
6
 40
45.0
 49
24.0
 74
0
 49
-3.0
 74
0
 49
6.0
 74
0
 49
-3.0
 74
0
 49
6.0
 74
0
 49
-3.0
 74
0
  0
LTYPE
  5
4C
100
AcDbSymbolTableRecord
100
AcDbLinetypeTableRecord
  2
ACAD_ISO13W100
 70
0
  3
ISO double-dash double-dot __ __ . . __ __ . . _
 72
65
 73
8
 40
36.0000000000000071
 49
12.0
 74
0
 49
-3.0
 74
0
 49
12.0
 74
0
 49
-2.9500000000000002
 74
0
 49
0.1
 74
0
 49
-2.9000000000000004
 74
0
 49
0.1
 74
0
 49
-2.9500000000000002
 74
0
  0
LTYPE
  5
4D
100
AcDbSymbolTableRecord
100
AcDbLinetypeTableRecord
  2
DOT2
 70
0
  3
Dot (.5x) .....................................
 72
65
 73
2
 40
3.1749999999999998
 49
0.1
 74
0
 49
-3.0749999999999997
 74
0
  0
LTYPE
  5
4E
100
AcDbSymbolTableRecord
100
AcDbLinetypeTableRecord
  2
DASHED
 70
0
  3
Dot . . . . . . . . . . . . . . . . . . . . . .
 72
65
 73
2
 40
19.0499999999999972
 49
12.6999999999999993
 74
0
 49
-6.3499999999999996
 74
0
  0
LTYPE
  5
4F
100
AcDbSymbolTableRecord
100
AcDbLinetypeTableRecord
  2
ACAD_ISO14W100
 70
0
  3
ISO dash triple-dot __ . . . __ . . . __ . . . _
 72
65
 73
8
 40
24.0000000000000036
 49
12.0
 74
0
 49
-2.9500000000000002
 74
0
 49
0.1
 74
0
 49
-2.9000000000000004
 74
0
 49
0.1
 74
0
 49
-2.9000000000000004
 74
0
 49
0.1
 74
0
 49
-2.9500000000000002
 74
0
  0
LTYPE
  5
50
100
AcDbSymbolTableRecord
100
AcDbLinetypeTableRecord
  2
PHANTOMX2
 70
0
  3
Phantom (2x) ____________    ____    ____   _
 72
65
 73
6
 40
127.0000000000000142
 49
63.5
 74
0
 49
-12.6999999999999993
 74
0
 49
12.6999999999999993
 74
0
 49
-12.6999999999999993
 74
0
 49
12.6999999999999993
 74
0
 49
-12.6999999999999993
 74
0
  0
LTYPE
  5
51
100
AcDbSymbolTableRecord
100
AcDbLinetypeTableRecord
  2
DIVIDEX2
 70
0
  3
Divide (2x) ________  .  .  ________  .  .  _
 72
65
 73
6
 40
63.5
 49
25.3999999999999986
 74
0
 49
-12.6499999999999986
 74
0
 49
0.1
 74
0
 49
-12.5999999999999979
 74
0
 49
0.1
 74
0
 49
-12.6499999999999986
 74
0
  0
LTYPE
  5
52
100
AcDbSymbolTableRecord
100
AcDbLinetypeTableRecord
  2
BORDER
 70
0
  3
Border __ __ . __ __ . __ __ . __ __ . __ __ .
 72
65
 73
6
 40
44.4499999999999957
 49
12.6999999999999993
 74
0
 49
-6.3499999999999996
 74
0
 49
12.6999999999999993
 74
0
 49
-6.2999999999999998
 74
0
 49
0.1
 74
0
 49
-6.2999999999999998
 74
0
  0
LTYPE
  5
53
100
AcDbSymbolTableRecord
100
AcDbLinetypeTableRecord
  2
DIVIDE2
 70
0
  3
Divide (.5x) __..__..__..__..__..__..__..__.._
 72
65
 73
6
 40
15.8749999999999982
 49
6.3499999999999996
 74
0
 49
-3.125
 74
0
 49
0.1
 74
0
 49
-3.0750000000000002
 74
0
 49
0.1
 74
0
 49
-3.125
 74
0
  0
LTYPE
  5
54
100
AcDbSymbolTableRecord
100
AcDbLinetypeTableRecord
  2
DOT
 70
0
  3
Dot . . . . . . . . . . . . . . . . . . . . . .
 72
65
 73
2
 40
6.3499999999999996
 49
0.1
 74
0
 49
-6.25
 74
0
  0
LTYPE
  5
55
100
AcDbSymbolTableRecord
100
AcDbLinetypeTableRecord
  2
DASHDOT
 70
0
  3
Dash dot __ . __ . __ . __ . __ . __ . __ . __
 72
65
 73
4
 40
25.4000000000000021
 49
12.6999999999999993
 74
0
 49
-6.2999999999999998
 74
0
 49
0.1
 74
0
 49
-6.2999999999999998
 74
0
  0
LTYPE
  5
56
100
AcDbSymbolTableRecord
100
AcDbLinetypeTableRecord
  2
ACAD_ISO03W100
 70
0
  3
ISO dash space __    __    __    __    __    __
 72
65
 73
2
 40
30.0
 49
12.0
 74
0
 49
-18.0
 74
0
  0
LTYPE
  5
15
100
AcDbSymbolTableRecord
100
AcDbLinetypeTableRecord
  2
ByLayer
 70
0
  3

 72
65
 73
0
 40
0.0
  0
ENDTAB
  0
TABLE
  2
LAYER
  5
2
100
AcDbSymbolTable
 70
1
  0
LAYER
  5
10
100
AcDbSymbolTableRecord
100
AcDbLayerTableRecord
  2
0
 70
0
 62
7
420
16777215
  6
Continuous
370
13
390
F
  0
ENDTAB
  0
TABLE
  2
STYLE
  5
3
100
AcDbSymbolTable
 70
74
  0
STYLE
  5
57
100
AcDbSymbolTableRecord
100
AcDbTextStyleTableRecord
  2
Standard
 70
0
 40
0.0
 41
1.0
 50
0.0
 71
0
 42
2.5
  3

  4

1001
ACAD
1000
txt
1071
0
  0
STYLE
  5
58
100
AcDbSymbolTableRecord
100
AcDbTextStyleTableRecord
  2
textstyle0
 70
0
 40
0.0
 41
1.0
 50
0.0
 71
0
 42
1.0
  3

  4

1001
ACAD
1000
Blue Highway
1071
0
  0
STYLE
  5
59
100
AcDbSymbolTableRecord
100
AcDbTextStyleTableRecord
  2
textstyle1
 70
0
 40
0.0
 41
1.0
 50
0.0
 71
0
 42
1.0
  3

  4

1001
ACAD
1000
Blue Highway
1071
0
  0
STYLE
  5
5A
100
AcDbSymbolTableRecord
100
AcDbTextStyleTableRecord
  2
textstyle2
 70
0
 40
0.0
 41
1.0
 50
0.0
 71
0
 42
1.0
  3

  4

1001
ACAD
1000
Blue Highway
1071
0
  0
STYLE
  5
5B
100
AcDbSymbolTableRecord
100
AcDbTextStyleTableRecord
  2
textstyle3
 70
0
 40
0.0
 41
1.0
 50
0.0
 71
0
 42
1.0
  3

  4

1001
ACAD
1000
Blue Highway
1071
0
  0
STYLE
  5
5C
100
AcDbSymbolTableRecord
100
AcDbTextStyleTableRecord
  2
textstyle4
 70
0
 40
0.0
 41
1.0
 50
0.0
 71
0
 42
1.0
  3

  4

1001
ACAD
1000
Blue Highway
1071
0
  0
STYLE
  5
5D
100
AcDbSymbolTableRecord
100
AcDbTextStyleTableRecord
  2
textstyle5
 70
0
 40
0.0
 41
1.0
 50
0.0
 71
0
 42
1.0
  3

  4

1001
ACAD
1000
Blue Highway
1071
0
  0
STYLE
  5
5E
100
AcDbSymbolTableRecord
100
AcDbTextStyleTableRecord
  2
textstyle6
 70
0
 40
0.0
 41
1.0
 50
0.0
 71
0
 42
1.0
  3

  4

1001
ACAD
1000
Blue Highway
1071
0
  0
STYLE
  5
5F
100
AcDbSymbolTableRecord
100
AcDbTextStyleTableRecord
  2
textstyle7
 70
0
 40
0.0
 41
1.0
 50
0.0
 71
0
 42
1.0
  3

  4

1001
ACAD
1000
Blue Highway
1071
0
  0
STYLE
  5
60
100
AcDbSymbolTableRecord
100
AcDbTextStyleTableRecord
  2
textstyle8
 70
0
 40
0.0
 41
1.0
 50
0.0
 71
0
 42
1.0
  3

  4

1001
ACAD
1000
Blue Highway
1071
0
  0
STYLE
  5
61
100
AcDbSymbolTableRecord
100
AcDbTextStyleTableRecord
  2
textstyle9
 70
0
 40
0.0
 41
1.0
 50
0.0
 71
0
 42
1.0
  3

  4

1001
ACAD
1000
Blue Highway
1071
0
  0
STYLE
  5
62
100
AcDbSymbolTableRecord
100
AcDbTextStyleTableRecord
  2
textstyle10
 70
0
 40
0.0
 41
1.0
 50
0.0
 71
0
 42
1.0
  3

  4

1001
ACAD
1000
Blue Highway
1071
0
  0
STYLE
  5
63
100
AcDbSymbolTableRecord
100
AcDbTextStyleTableRecord
  2
textstyle11
 70
0
 40
0.0
 41
1.0
 50
0.0
 71
0
 42
1.0
  3

  4

1001
ACAD
1000
Blue Highway
1071
0
  0
STYLE
  5
64
100
AcDbSymbolTableRecord
100
AcDbTextStyleTableRecord
  2
textstyle12
 70
0
 40
0.0
 41
1.0
 50
0.0
 71
0
 42
1.0
  3

  4

1001
ACAD
1000
Blue Highway
1071
0
  0
STYLE
  5
65
100
AcDbSymbolTableRecord
100
AcDbTextStyleTableRecord
  2
textstyle13
 70
0
 40
0.0
 41
1.0
 50
0.0
 71
0
 42
1.0
  3

  4

1001
ACAD
1000
Blue Highway
1071
0
  0
STYLE
  5
66
100
AcDbSymbolTableRecord
100
AcDbTextStyleTableRecord
  2
textstyle14
 70
0
 40
0.0
 41
1.0
 50
0.0
 71
0
 42
1.0
  3

  4

1001
ACAD
1000
Blue Highway
1071
0
  0
STYLE
  5
67
100
AcDbSymbolTableRecord
100
AcDbTextStyleTableRecord
  2
textstyle15
 70
0
 40
0.0
 41
1.0
 50
0.0
 71
0
 42
1.0
  3

  4

1001
ACAD
1000
Blue Highway
1071
0
  0
STYLE
  5
68
100
AcDbSymbolTableRecord
100
AcDbTextStyleTableRecord
  2
textstyle16
 70
0
 40
0.0
 41
1.0
 50
0.0
 71
0
 42
1.0
  3

  4

1001
ACAD
1000
Blue Highway
1071
0
  0
STYLE
  5
69
100
AcDbSymbolTableRecord
100
AcDbTextStyleTableRecord
  2
textstyle17
 70
0
 40
0.0
 41
1.0
 50
0.0
 71
0
 42
1.0
  3

  4

1001
ACAD
1000
Blue Highway
1071
0
  0
STYLE
  5
6A
100
AcDbSymbolTableRecord
100
AcDbTextStyleTableRecord
  2
textstyle18
 70
0
 40
0.0
 41
1.0
 50
0.0
 71
0
 42
1.0
  3

  4

1001
ACAD
1000
Blue Highway
1071
0
  0
STYLE
  5
6B
100
AcDbSymbolTableRecord
100
AcDbTextStyleTableRecord
  2
textstyle19
 70
0
 40
0.0
 41
1.0
 50
0.0
 71
0
 42
1.0
  3

  4

1001
ACAD
1000
Blue Highway
1071
0
  0
STYLE
  5
6C
100
AcDbSymbolTableRecord
100
AcDbTextStyleTableRecord
  2
textstyle20
 70
0
 40
0.0
 41
1.0
 50
0.0
 71
0
 42
1.0
  3

  4

1001
ACAD
1000
Blue Highway
1071
0
  0
STYLE
  5
6D
100
AcDbSymbolTableRecord
100
AcDbTextStyleTableRecord
  2
textstyle21
 70
0
 40
0.0
 41
1.0
 50
0.0
 71
0
 42
1.0
  3

  4

1001
ACAD
1000
Blue Highway
1071
0
  0
STYLE
  5
6E
100
AcDbSymbolTableRecord
100
AcDbTextStyleTableRecord
  2
textstyle22
 70
0
 40
0.0
 41
1.0
 50
0.0
 71
0
 42
1.0
  3

  4

1001
ACAD
1000
Blue Highway
1071
0
  0
STYLE
  5
6F
100
AcDbSymbolTableRecord
100
AcDbTextStyleTableRecord
  2
textstyle23
 70
0
 40
0.0
 41
1.0
 50
0.0
 71
0
 42
1.0
  3

  4

1001
ACAD
1000
Blue Highway
1071
0
  0
STYLE
  5
70
100
AcDbSymbolTableRecord
100
AcDbTextStyleTableRecord
  2
textstyle24
 70
0
 40
0.0
 41
1.0
 50
0.0
 71
0
 42
1.0
  3

  4

1001
ACAD
1000
Blue Highway
1071
0
  0
STYLE
  5
71
100
AcDbSymbolTableRecord
100
AcDbTextStyleTableRecord
  2
textstyle25
 70
0
 40
0.0
 41
1.0
 50
0.0
 71
0
 42
1.0
  3

  4

1001
ACAD
1000
Blue Highway
1071
0
  0
STYLE
  5
72
100
AcDbSymbolTableRecord
100
AcDbTextStyleTableRecord
  2
textstyle26
 70
0
 40
0.0
 41
1.0
 50
0.0
 71
0
 42
1.0
  3

  4

1001
ACAD
1000
Blue Highway
1071
0
  0
STYLE
  5
73
100
AcDbSymbolTableRecord
100
AcDbTextStyleTableRecord
  2
textstyle27
 70
0
 40
0.0
 41
1.0
 50
0.0
 71
0
 42
1.0
  3

  4

1001
ACAD
1000
Blue Highway
1071
0
  0
STYLE
  5
74
100
AcDbSymbolTableRecord
100
AcDbTextStyleTableRecord
  2
textstyle28
 70
0
 40
0.0
 41
1.0
 50
0.0
 71
0
 42
1.0
  3

  4

1001
ACAD
1000
Blue Highway
1071
0
  0
STYLE
  5
75
100
AcDbSymbolTableRecord
100
AcDbTextStyleTableRecord
  2
textstyle29
 70
0
 40
0.0
 41
1.0
 50
0.0
 71
0
 42
1.0
  3

  4

1001
ACAD
1000
Blue Highway
1071
0
  0
STYLE
  5
76
100
AcDbSymbolTableRecord
100
AcDbTextStyleTableRecord
  2
textstyle30
 70
0
 40
0.0
 41
1.0
 50
0.0
 71
0
 42
1.0
  3

  4

1001
ACAD
1000
Blue Highway
1071
0
  0
STYLE
  5
77
100
AcDbSymbolTableRecord
100
AcDbTextStyleTableRecord
  2
textstyle31
 70
0
 40
0.0
 41
1.0
 50
0.0
 71
0
 42
1.0
  3

  4

1001
ACAD
1000
Blue Highway
1071
0
  0
STYLE
  5
78
100
AcDbSymbolTableRecord
100
AcDbTextStyleTableRecord
  2
textstyle32
 70
0
 40
0.0
 41
1.0
 50
0.0
 71
0
 42
1.0
  3

  4

1001
ACAD
1000
Blue Highway
1071
0
  0
STYLE
  5
79
100
AcDbSymbolTableRecord
100
AcDbTextStyleTableRecord
  2
textstyle33
 70
0
 40
0.0
 41
1.0
 50
0.0
 71
0
 42
1.0
  3

  4

1001
ACAD
1000
Blue Highway
1071
0
  0
STYLE
  5
7A
100
AcDbSymbolTableRecord
100
AcDbTextStyleTableRecord
  2
textstyle34
 70
0
 40
0.0
 41
1.0
 50
0.0
 71
0
 42
1.0
  3

  4

1001
ACAD
1000
Blue Highway
1071
0
  0
STYLE
  5
7B
100
AcDbSymbolTableRecord
100
AcDbTextStyleTableRecord
  2
textstyle35
 70
0
 40
0.0
 41
1.0
 50
0.0
 71
0
 42
1.0
  3

  4

1001
ACAD
1000
Blue Highway
1071
0
  0
STYLE
  5
7C
100
AcDbSymbolTableRecord
100
AcDbTextStyleTableRecord
  2
textstyle36
 70
0
 40
0.0
 41
1.0
 50
0.0
 71
0
 42
1.0
  3

  4

1001
ACAD
1000
Blue Highway
1071
0
  0
STYLE
  5
7D
100
AcDbSymbolTableRecord
100
AcDbTextStyleTableRecord
  2
textstyle37
 70
0
 40
0.0
 41
1.0
 50
0.0
 71
0
 42
1.0
  3

  4

1001
ACAD
1000
Blue Highway
1071
0
  0
STYLE
  5
7E
100
AcDbSymbolTableRecord
100
AcDbTextStyleTableRecord
  2
textstyle38
 70
0
 40
0.0
 41
1.0
 50
0.0
 71
0
 42
1.0
  3

  4

1001
ACAD
1000
Blue Highway
1071
0
  0
STYLE
  5
7F
100
AcDbSymbolTableRecord
100
AcDbTextStyleTableRecord
  2
textstyle39
 70
0
 40
0.0
 41
1.0
 50
0.0
 71
0
 42
1.0
  3

  4

1001
ACAD
1000
Blue Highway
1071
0
  0
STYLE
  5
80
100
AcDbSymbolTableRecord
100
AcDbTextStyleTableRecord
  2
textstyle40
 70
0
 40
0.0
 41
1.0
 50
0.0
 71
0
 42
1.0
  3

  4

1001
ACAD
1000
Blue Highway
1071
0
  0
STYLE
  5
81
100
AcDbSymbolTableRecord
100
AcDbTextStyleTableRecord
  2
textstyle41
 70
0
 40
0.0
 41
1.0
 50
0.0
 71
0
 42
1.0
  3

  4

1001
ACAD
1000
Blue Highway
1071
0
  0
STYLE
  5
82
100
AcDbSymbolTableRecord
100
AcDbTextStyleTableRecord
  2
textstyle42
 70
0
 40
0.0
 41
1.0
 50
0.0
 71
0
 42
1.0
  3

  4

1001
ACAD
1000
Blue Highway
1071
0
  0
STYLE
  5
83
100
AcDbSymbolTableRecord
100
AcDbTextStyleTableRecord
  2
textstyle43
 70
0
 40
0.0
 41
1.0
 50
0.0
 71
0
 42
1.0
  3

  4

1001
ACAD
1000
Blue Highway
1071
0
  0
STYLE
  5
84
100
AcDbSymbolTableRecord
100
AcDbTextStyleTableRecord
  2
textstyle44
 70
0
 40
0.0
 41
1.0
 50
0.0
 71
0
 42
1.0
  3

  4

1001
ACAD
1000
Blue Highway
1071
0
  0
STYLE
  5
85
100
AcDbSymbolTableRecord
100
AcDbTextStyleTableRecord
  2
textstyle45
 70
0
 40
0.0
 41
1.0
 50
0.0
 71
0
 42
1.0
  3

  4

1001
ACAD
1000
Blue Highway
1071
0
  0
STYLE
  5
86
100
AcDbSymbolTableRecord
100
AcDbTextStyleTableRecord
  2
textstyle46
 70
0
 40
0.0
 41
1.0
 50
0.0
 71
0
 42
1.0
  3

  4

1001
ACAD
1000
Blue Highway
1071
0
  0
STYLE
  5
87
100
AcDbSymbolTableRecord
100
AcDbTextStyleTableRecord
  2
textstyle47
 70
0
 40
0.0
 41
1.0
 50
0.0
 71
0
 42
1.0
  3

  4

1001
ACAD
1000
Blue Highway
1071
0
  0
STYLE
  5
88
100
AcDbSymbolTableRecord
100
AcDbTextStyleTableRecord
  2
textstyle48
 70
0
 40
0.0
 41
1.0
 50
0.0
 71
0
 42
1.0
  3

  4

1001
ACAD
1000
Blue Highway
1071
0
  0
STYLE
  5
89
100
AcDbSymbolTableRecord
100
AcDbTextStyleTableRecord
  2
textstyle49
 70
0
 40
0.0
 41
1.0
 50
0.0
 71
0
 42
1.0
  3

  4

1001
ACAD
1000
Blue Highway
1071
0
  0
STYLE
  5
8A
100
AcDbSymbolTableRecord
100
AcDbTextStyleTableRecord
  2
textstyle50
 70
0
 40
0.0
 41
1.0
 50
0.0
 71
0
 42
1.0
  3

  4

1001
ACAD
1000
Blue Highway
1071
0
  0
STYLE
  5
8B
100
AcDbSymbolTableRecord
100
AcDbTextStyleTableRecord
  2
textstyle51
 70
0
 40
0.0
 41
1.0
 50
0.0
 71
0
 42
1.0
  3

  4

1001
ACAD
1000
Blue Highway
1071
0
  0
STYLE
  5
8C
100
AcDbSymbolTableRecord
100
AcDbTextStyleTableRecord
  2
textstyle52
 70
0
 40
0.0
 41
1.0
 50
0.0
 71
0
 42
1.0
  3

  4

1001
ACAD
1000
Blue Highway
1071
0
  0
STYLE
  5
8D
100
AcDbSymbolTableRecord
100
AcDbTextStyleTableRecord
  2
textstyle53
 70
0
 40
0.0
 41
1.0
 50
0.0
 71
0
 42
1.0
  3

  4

1001
ACAD
1000
Blue Highway
1071
0
  0
STYLE
  5
8E
100
AcDbSymbolTableRecord
100
AcDbTextStyleTableRecord
  2
textstyle54
 70
0
 40
0.0
 41
1.0
 50
0.0
 71
0
 42
1.0
  3

  4

1001
ACAD
1000
Blue Highway
1071
0
  0
STYLE
  5
8F
100
AcDbSymbolTableRecord
100
AcDbTextStyleTableRecord
  2
textstyle55
 70
0
 40
0.0
 41
1.0
 50
0.0
 71
0
 42
1.0
  3

  4

1001
ACAD
1000
Blue Highway
1071
0
  0
STYLE
  5
90
100
AcDbSymbolTableRecord
100
AcDbTextStyleTableRecord
  2
textstyle56
 70
0
 40
0.0
 41
1.0
 50
0.0
 71
0
 42
1.0
  3

  4

1001
ACAD
1000
Blue Highway
1071
0
  0
STYLE
  5
91
100
AcDbSymbolTableRecord
100
AcDbTextStyleTableRecord
  2
textstyle57
 70
0
 40
0.0
 41
1.0
 50
0.0
 71
0
 42
1.0
  3

  4

1001
ACAD
1000
Blue Highway
1071
0
  0
STYLE
  5
92
100
AcDbSymbolTableRecord
100
AcDbTextStyleTableRecord
  2
textstyle58
 70
0
 40
0.0
 41
1.0
 50
0.0
 71
0
 42
1.0
  3

  4

1001
ACAD
1000
Blue Highway
1071
0
  0
STYLE
  5
93
100
AcDbSymbolTableRecord
100
AcDbTextStyleTableRecord
  2
textstyle59
 70
0
 40
0.0
 41
1.0
 50
0.0
 71
0
 42
1.0
  3

  4

1001
ACAD
1000
Blue Highway
1071
0
  0
STYLE
  5
94
100
AcDbSymbolTableRecord
100
AcDbTextStyleTableRecord
  2
textstyle60
 70
0
 40
0.0
 41
1.0
 50
0.0
 71
0
 42
1.0
  3

  4

1001
ACAD
1000
Blue Highway
1071
0
  0
STYLE
  5
95
100
AcDbSymbolTableRecord
100
AcDbTextStyleTableRecord
  2
textstyle61
 70
0
 40
0.0
 41
1.0
 50
0.0
 71
0
 42
1.0
  3

  4

1001
ACAD
1000
Blue Highway
1071
0
  0
STYLE
  5
96
100
AcDbSymbolTableRecord
100
AcDbTextStyleTableRecord
  2
textstyle62
 70
0
 40
0.0
 41
1.0
 50
0.0
 71
0
 42
1.0
  3

  4

1001
ACAD
1000
Blue Highway
1071
0
  0
STYLE
  5
97
100
AcDbSymbolTableRecord
100
AcDbTextStyleTableRecord
  2
textstyle63
 70
0
 40
0.0
 41
1.0
 50
0.0
 71
0
 42
1.0
  3

  4

1001
ACAD
1000
Blue Highway
1071
0
  0
STYLE
  5
98
100
AcDbSymbolTableRecord
100
AcDbTextStyleTableRecord
  2
textstyle64
 70
0
 40
0.0
 41
1.0
 50
0.0
 71
0
 42
1.0
  3

  4

1001
ACAD
1000
Blue Highway
1071
0
  0
STYLE
  5
99
100
AcDbSymbolTableRecord
100
AcDbTextStyleTableRecord
  2
textstyle65
 70
0
 40
0.0
 41
1.0
 50
0.0
 71
0
 42
1.0
  3

  4

1001
ACAD
1000
Blue Highway
1071
0
  0
STYLE
  5
9A
100
AcDbSymbolTableRecord
100
AcDbTextStyleTableRecord
  2
textstyle66
 70
0
 40
0.0
 41
1.0
 50
0.0
 71
0
 42
1.0
  3

  4

1001
ACAD
1000
Blue Highway
1071
0
  0
STYLE
  5
9B
100
AcDbSymbolTableRecord
100
AcDbTextStyleTableRecord
  2
textstyle67
 70
0
 40
0.0
 41
1.0
 50
0.0
 71
0
 42
1.0
  3

  4

1001
ACAD
1000
Blue Highway
1071
0
  0
STYLE
  5
9C
100
AcDbSymbolTableRecord
100
AcDbTextStyleTableRecord
  2
textstyle68
 70
0
 40
0.0
 41
1.0
 50
0.0
 71
0
 42
1.0
  3

  4

1001
ACAD
1000
Blue Highway
1071
0
  0
STYLE
  5
9D
100
AcDbSymbolTableRecord
100
AcDbTextStyleTableRecord
  2
textstyle69
 70
0
 40
0.0
 41
1.0
 50
0.0
 71
0
 42
1.0
  3

  4

1001
ACAD
1000
Blue Highway
1071
0
  0
STYLE
  5
9E
100
AcDbSymbolTableRecord
100
AcDbTextStyleTableRecord
  2
textstyle70
 70
0
 40
0.0
 41
1.0
 50
0.0
 71
0
 42
1.0
  3

  4

1001
ACAD
1000
Blue Highway
1071
0
  0
STYLE
  5
9F
100
AcDbSymbolTableRecord
100
AcDbTextStyleTableRecord
  2
textstyle71
 70
0
 40
0.0
 41
1.0
 50
0.0
 71
0
 42
1.0
  3

  4

1001
ACAD
1000
Blue Highway
1071
0
  0
STYLE
  5
A0
100
AcDbSymbolTableRecord
100
AcDbTextStyleTableRecord
  2
textstyle72
 70
0
 40
0.0
 41
1.0
 50
0.0
 71
0
 42
1.0
  3

  4

1001
ACAD
1000
Blue Highway
1071
0
  0
ENDTAB
  0
TABLE
  2
VIEW
  5
6
100
AcDbSymbolTable
 70
0
  0
ENDTAB
  0
TABLE
  2
UCS
  5
7
100
AcDbSymbolTable
 70
0
  0
ENDTAB
  0
TABLE
  2
APPID
  5
9
100
AcDbSymbolTable
 70
1
  0
APPID
  5
12
100
AcDbSymbolTableRecord
100
AcDbRegAppTableRecord
  2
ACAD
 70
0
  0
APPID
  5
A1
100
AcDbSymbolTableRecord
100
AcDbRegAppTableRecord
  2
QCAD
 70
0
  0
ENDTAB
  0
TABLE
  2
DIMSTYLE
  5
A
100
AcDbSymbolTable
 70
1
100
AcDbDimStyleTable
 71
0
  0
DIMSTYLE
105
27
100
AcDbSymbolTableRecord
100
AcDbDimStyleTableRecord
  2
Standard
 41
2.5
 42
0.625
 43
3.75
 44
1.25
 70
0
 73
0
 74
0
 77
1
 78
8
140
2.5
141
2.5
143
0.03937007874016
147
0.625
171
3
172
1
271
2
272
2
274
3
278
44
283
0
284
8
340
57
  0
ENDTAB
  0
TABLE
  2
BLOCK_RECORD
  5
1
100
AcDbSymbolTable
 70
1
  0
BLOCK_RECORD
  5
1F
100
AcDbSymbolTableRecord
100
AcDbBlockTableRecord
  2
*Model_Space
340
22
  0
BLOCK_RECORD
  5
1B
100
AcDbSymbolTableRecord
100
AcDbBlockTableRecord
  2
*Paper_Space
340
1E
  0
BLOCK_RECORD
  5
23
100
AcDbSymbolTableRecord
100
AcDbBlockTableRecord
  2
*Paper_Space0
340
26
  0
ENDTAB
  0
ENDSEC
  0
SECTION
  2
BLOCKS
  0
BLOCK
  5
20
100
AcDbEntity
  8
0
100
AcDbBlockBegin
  2
*Model_Space
 70
0
 10
0.0
 20
0.0
 30
0.0
  3
*Model_Space
  1

  0
ENDBLK
  5
21
100
AcDbEntity
  8
0
100
AcDbBlockEnd
  0
BLOCK
  5
1C
100
AcDbEntity
 67
1
  8
0
100
AcDbBlockBegin
  2
*Paper_Space
 70
0
 10
0.0
 20
0.0
 30
0.0
  3
*Paper_Space
  1

  0
ENDBLK
  5
1D
100
AcDbEntity
 67
1
  8
0
100
AcDbBlockEnd
  0
BLOCK
  5
24
100
AcDbEntity
  8
0
100
AcDbBlockBegin
  2
*Paper_Space0
 70
0
 10
0.0
 20
0.0
 30
0.0
  3
*Paper_Space0
  1

  0
ENDBLK
  5
25
100
AcDbEntity
  8
0
100
AcDbBlockEnd
  0
ENDSEC
  0
SECTION
  2
ENTITIES
  0
LINE
  5
A2
100
AcDbEntity
100
AcDbLine
  8
0
 62
256
370
-1
 48
1.0
  6
ByLayer
 10
30.0
 20
0.0
 30
0.0
 11
44.0
 21
0.0
 31
0.0
  0
LINE
  5
A3
100
AcDbEntity
100
AcDbLine
  8
0
 62
256
370
-1
 48
1.0
  6
ByLayer
 10
30.0
 20
1.0
 30
0.0
 11
32.0
 21
1.0
 31
0.0
  0
LINE
  5
A4
100
AcDbEntity
100
AcDbLine
  8
0
 62
256
370
-1
 48
1.0
  6
ByLayer
 10
30.0
 20
2.0
 30
0.0
 11
35.0
 21
2.0
 31
0.0
  0
LINE
  5
A5
100
AcDbEntity
100
AcDbLine
  8
0
 62
256
370
-1
 48
1.0
  6
ByLayer
 10
30.0
 20
3.0
 30
0.0
 11
32.0
 21
3.0
 31
0.0
  0
LINE
  5
A6
100
AcDbEntity
100
AcDbLine
  8
0
 62
256
370
-1
 48
1.0
  6
ByLayer
 10
30.0
 20
4.0
 30
0.0
 11
35.0
 21
4.0
 31
0.0
  0
LINE
  5
A7
100
AcDbEntity
100
AcDbLine
  8
0
 62
256
370
-1
 48
1.0
  6
ByLayer
 10
30.0
 20
-1.0
 30
0.0
 11
32.0
 21
-1.0
 31
0.0
  0
LINE
  5
A8
100
AcDbEntity
100
AcDbLine
  8
0
 62
256
370
-1
 48
1.0
  6
ByLayer
 10
30.0
 20
-2.0
 30
0.0
 11
35.0
 21
-2.0
 31
0.0
  0
LINE
  5
A9
100
AcDbEntity
100
AcDbLine
  8
0
 62
256
370
-1
 48
1.0
  6
ByLayer
 10
30.0
 20
-3.0
 30
0.0
 11
32.0
 21
-3.0
 31
0.0
  0
LINE
  5
AA
100
AcDbEntity
100
AcDbLine
  8
0
 62
256
370
-1
 48
1.0
  6
ByLayer
 10
30.0
 20
-4.0
 30
0.0
 11
35.0
 21
-4.0
 31
0.0
  0
LINE
  5
AB
100
AcDbEntity
100
AcDbLine
  8
0
 62
256
370
-1
 48
1.0
  6
ByLayer
 10
30.0
 20
-5.0
 30
0.0
 11
32.0
 21
-5.0
 31
0.0
  0
LINE
  5
AC
100
AcDbEntity
100
AcDbLine
  8
0
 62
256
370
-1
 48
1.0
  6
ByLayer
 10
30.0
 20
-6.0
 30
0.0
 11
35.0
 21
-6.0
 31
0.0
  0
LINE
  5
AD
100
AcDbEntity
100
AcDbLine
  8
0
 62
256
370
-1
 48
1.0
  6
ByLayer
 10
30.0
 20
-7.0
 30
0.0
 11
32.0
 21
-7.0
 31
0.0
  0
LINE
  5
AE
100
AcDbEntity
100
AcDbLine
  8
0
 62
256
370
-1
 48
1.0
  6
ByLayer
 10
30.0
 20
-8.0
 30
0.0
 11
35.0
 21
-8.0
 31
0.0
  0
LINE
  5
AF
100
AcDbEntity
100
AcDbLine
  8
0
 62
256
370
-1
 48
1.0
  6
ByLayer
 10
30.0
 20
-9.0
 30
0.0
 11
32.0
 21
-9.0
 31
0.0
  0
LINE
  5
B0
100
AcDbEntity
100
AcDbLine
  8
0
 62
256
370
-1
 48
1.0
  6
ByLayer
 10
30.0
 20
-10.0
 30
0.0
 11
35.0
 21
-10.0
 31
0.0
  0
LINE
  5
B1
100
AcDbEntity
100
AcDbLine
  8
0
 62
256
370
-1
 48
1.0
  6
ByLayer
 10
30.0
 20
5.0
 30
0.0
 11
32.0
 21
5.0
 31
0.0
  0
LINE
  5
B2
100
AcDbEntity
100
AcDbLine
  8
0
 62
256
370
-1
 48
1.0
  6
ByLayer
 10
30.0
 20
6.0
 30
0.0
 11
35.0
 21
6.0
 31
0.0
  0
LINE
  5
B3
100
AcDbEntity
100
AcDbLine
  8
0
 62
256
370
-1
 48
1.0
  6
ByLayer
 10
30.0
 20
7.0
 30
0.0
 11
32.0
 21
7.0
 31
0.0
  0
LINE
  5
B4
100
AcDbEntity
100
AcDbLine
  8
0
 62
256
370
-1
 48
1.0
  6
ByLayer
 10
30.0
 20
8.0
 30
0.0
 11
35.0
 21
8.0
 31
0.0
  0
LINE
  5
B5
100
AcDbEntity
100
AcDbLine
  8
0
 62
256
370
-1
 48
1.0
  6
ByLayer
 10
30.0
 20
9.0
 30
0.0
 11
32.0
 21
9.0
 31
0.0
  0
LINE
  5
B6
100
AcDbEntity
100
AcDbLine
  8
0
 62
256
370
-1
 48
1.0
  6
ByLayer
 10
30.0
 20
10.0
 30
0.0
 11
35.0
 21
10.0
 31
0.0
  0
LINE
  5
B7
100
AcDbEntity
100
AcDbLine
  8
0
 62
256
370
-1
 48
1.0
  6
ByLayer
 10
30.0
 20
15.0
 30
0.0
 11
35.0
 21
15.0
 31
0.0
  0
LINE
  5
B8
100
AcDbEntity
100
AcDbLine
  8
0
 62
256
370
-1
 48
1.0
  6
ByLayer
 10
30.0
 20
20.0
 30
0.0
 11
35.0
 21
20.0
 31
0.0
  0
LINE
  5
B9
100
AcDbEntity
100
AcDbLine
  8
0
 62
256
370
-1
 48
1.0
  6
ByLayer
 10
30.0
 20
12.5
 30
0.0
 11
32.0
 21
12.5
 31
0.0
  0
LINE
  5
BA
100
AcDbEntity
100
AcDbLine
  8
0
 62
256
370
-1
 48
1.0
  6
ByLayer
 10
30.0
 20
17.5
 30
0.0
 11
32.0
 21
17.5
 31
0.0
  0
LINE
  5
BB
100
AcDbEntity
100
AcDbLine
  8
0
 62
256
370
-1
 48
1.0
  6
ByLayer
 10
30.0
 20
-15.0
 30
0.0
 11
35.0
 21
-15.0
 31
0.0
  0
LINE
  5
BC
100
AcDbEntity
100
AcDbLine
  8
0
 62
256
370
-1
 48
1.0
  6
ByLayer
 10
30.0
 20
-20.0
 30
0.0
 11
35.0
 21
-20.0
 31
0.0
  0
LINE
  5
BD
100
AcDbEntity
100
AcDbLine
  8
0
 62
256
370
-1
 48
1.0
  6
ByLayer
 10
30.0
 20
-12.5
 30
0.0
 11
32.0
 21
-12.5
 31
0.0
  0
LINE
  5
BE
100
AcDbEntity
100
AcDbLine
  8
0
 62
256
370
-1
 48
1.0
  6
ByLayer
 10
30.0
 20
-17.5
 30
0.0
 11
32.0
 21
-17.5
 31
0.0
  0
MTEXT
  5
BF
100
AcDbEntity
100
AcDbMText
  8
0
 62
256
370
-1
 48
1.0
  6
ByLayer
 10
37.0
 20
2.0
 30
0.0
 40
1.0
 41
2.4444444444400002
 71
4
 72
1
  1
2mm
  7
textstyle0
 50
0.0
 73
2
 44
1.0
  0
MTEXT
  5
C0
100
AcDbEntity
100
AcDbMText
  8
0
 62
256
370
-1
 48
1.0
  6
ByLayer
 10
37.0
 20
4.0
 30
0.0
 40
1.0
 41
2.5555555555599998
 71
4
 72
1
  1
4mm
  7
textstyle1
 50
0.0
 73
2
 44
1.0
  0
MTEXT
  5
C1
100
AcDbEntity
100
AcDbMText
  8
0
 62
256
370
-1
 48
1.0
  6
ByLayer
 10
37.0
 20
6.0
 30
0.0
 40
1.0
 41
2.4444444444400002
 71
4
 72
1
  1
6mm
  7
textstyle2
 50
0.0
 73
2
 44
1.0
  0
MTEXT
  5
C2
100
AcDbEntity
100
AcDbMText
  8
0
 62
256
370
-1
 48
1.0
  6
ByLayer
 10
37.0
 20
8.0
 30
0.0
 40
1.0
 41
2.4444444444400002
 71
4
 72
1
  1
8mm
  7
textstyle3
 50
0.0
 73
2
 44
1.0
  0
MTEXT
  5
C3
100
AcDbEntity
100
AcDbMText
  8
0
 62
256
370
-1
 48
1.0
  6
ByLayer
 10
37.0
 20
10.0
 30
0.0
 40
1.0
 41
3.0
 71
4
 72
1
  1
10mm
  7
textstyle4
 50
0.0
 73
2
 44
1.0
  0
MTEXT
  5
C4
100
AcDbEntity
100
AcDbMText
  8
0
 62
256
370
-1
 48
1.0
  6
ByLayer
 10
37.0
 20
15.0
 30
0.0
 40
1.0
 41
3.0
 71
4
 72
1
  1
15mm
  7
textstyle5
 50
0.0
 73
2
 44
1.0
  0
MTEXT
  5
C5
100
AcDbEntity
100
AcDbMText
  8
0
 62
256
370
-1
 48
1.0
  6
ByLayer
 10
37.0
 20
20.0
 30
0.0
 40
1.0
 41
3.2222222222200001
 71
4
 72
1
  1
20mm
  7
textstyle6
 50
0.0
 73
2
 44
1.0
  0
MTEXT
  5
C6
100
AcDbEntity
100
AcDbMText
  8
0
 62
256
370
-1
 48
1.0
  6
ByLayer
 10
37.0
 20
-20.0
 30
0.0
 40
1.0
 41
3.2222222222200001
 71
4
 72
1
  1
20mm
  7
textstyle7
 50
0.0
 73
2
 44
1.0
  0
MTEXT
  5
C7
100
AcDbEntity
100
AcDbMText
  8
0
 62
256
370
-1
 48
1.0
  6
ByLayer
 10
37.0
 20
-15.0
 30
0.0
 40
1.0
 41
3.0
 71
4
 72
1
  1
15mm
  7
textstyle8
 50
0.0
 73
2
 44
1.0
  0
MTEXT
  5
C8
100
AcDbEntity
100
AcDbMText
  8
0
 62
256
370
-1
 48
1.0
  6
ByLayer
 10
37.0
 20
-10.0
 30
0.0
 40
1.0
 41
3.0
 71
4
 72
1
  1
10mm
  7
textstyle9
 50
0.0
 73
2
 44
1.0
  0
MTEXT
  5
C9
100
AcDbEntity
100
AcDbMText
  8
0
 62
256
370
-1
 48
1.0
  6
ByLayer
 10
37.0
 20
-8.0
 30
0.0
 40
1.0
 41
2.4444444444400002
 71
4
 72
1
  1
8mm
  7
textstyle10
 50
0.0
 73
2
 44
1.0
  0
MTEXT
  5
CA
100
AcDbEntity
100
AcDbMText
  8
0
 62
256
370
-1
 48
1.0
  6
ByLayer
 10
37.0
 20
-6.0
 30
0.0
 40
1.0
 41
2.4444444444400002
 71
4
 72
1
  1
6mm
  7
textstyle11
 50
0.0
 73
2
 44
1.0
  0
MTEXT
  5
CB
100
AcDbEntity
100
AcDbMText
  8
0
 62
256
370
-1
 48
1.0
  6
ByLayer
 10
37.0
 20
-4.0
 30
0.0
 40
1.0
 41
2.5555555555599998
 71
4
 72
1
  1
4mm
  7
textstyle12
 50
0.0
 73
2
 44
1.0
  0
MTEXT
  5
CC
100
AcDbEntity
100
AcDbMText
  8
0
 62
256
370
-1
 48
1.0
  6
ByLayer
 10
37.0
 20
-2.0
 30
0.0
 40
1.0
 41
2.4444444444400002
 71
4
 72
1
  1
2mm
  7
textstyle13
 50
0.0
 73
2
 44
1.0
  0
LINE
  5
CD
100
AcDbEntity
100
AcDbLine
  8
0
 62
256
370
-1
 48
1.0
  6
ByLayer
 10
30.0
 20
25.0
 30
0.0
 11
35.0
 21
25.0
 31
0.0
  0
LINE
  5
CE
100
AcDbEntity
100
AcDbLine
  8
0
 62
256
370
-1
 48
1.0
  6
ByLayer
 10
30.0
 20
30.0
 30
0.0
 11
35.0
 21
30.0
 31
0.0
  0
LINE
  5
CF
100
AcDbEntity
100
AcDbLine
  8
0
 62
256
370
-1
 48
1.0
  6
ByLayer
 10
30.0
 20
22.5
 30
0.0
 11
32.0
 21
22.5
 31
0.0
  0
LINE
  5
D0
100
AcDbEntity
100
AcDbLine
  8
0
 62
256
370
-1
 48
1.0
  6
ByLayer
 10
30.0
 20
27.5
 30
0.0
 11
32.0
 21
27.5
 31
0.0
  0
LINE
  5
D1
100
AcDbEntity
100
AcDbLine
  8
0
 62
256
370
-1
 48
1.0
  6
ByLayer
 10
30.0
 20
35.0
 30
0.0
 11
35.0
 21
35.0
 31
0.0
  0
LINE
  5
D2
100
AcDbEntity
100
AcDbLine
  8
0
 62
256
370
-1
 48
1.0
  6
ByLayer
 10
30.0
 20
40.0
 30
0.0
 11
35.0
 21
40.0
 31
0.0
  0
LINE
  5
D3
100
AcDbEntity
100
AcDbLine
  8
0
 62
256
370
-1
 48
1.0
  6
ByLayer
 10
30.0
 20
32.5
 30
0.0
 11
32.0
 21
32.5
 31
0.0
  0
LINE
  5
D4
100
AcDbEntity
100
AcDbLine
  8
0
 62
256
370
-1
 48
1.0
  6
ByLayer
 10
30.0
 20
37.5
 30
0.0
 11
32.0
 21
37.5
 31
0.0
  0
LINE
  5
D5
100
AcDbEntity
100
AcDbLine
  8
0
 62
256
370
-1
 48
1.0
  6
ByLayer
 10
30.0
 20
45.0
 30
0.0
 11
35.0
 21
45.0
 31
0.0
  0
LINE
  5
D6
100
AcDbEntity
100
AcDbLine
  8
0
 62
256
370
-1
 48
1.0
  6
ByLayer
 10
30.0
 20
50.0
 30
0.0
 11
35.0
 21
50.0
 31
0.0
  0
LINE
  5
D7
100
AcDbEntity
100
AcDbLine
  8
0
 62
256
370
-1
 48
1.0
  6
ByLayer
 10
30.0
 20
42.5
 30
0.0
 11
32.0
 21
42.5
 31
0.0
  0
LINE
  5
D8
100
AcDbEntity
100
AcDbLine
  8
0
 62
256
370
-1
 48
1.0
  6
ByLayer
 10
30.0
 20
47.5
 30
0.0
 11
32.0
 21
47.5
 31
0.0
  0
LINE
  5
D9
100
AcDbEntity
100
AcDbLine
  8
0
 62
256
370
-1
 48
1.0
  6
ByLayer
 10
30.0
 20
55.0
 30
0.0
 11
35.0
 21
55.0
 31
0.0
  0
LINE
  5
DA
100
AcDbEntity
100
AcDbLine
  8
0
 62
256
370
-1
 48
1.0
  6
ByLayer
 10
30.0
 20
60.0
 30
0.0
 11
35.0
 21
60.0
 31
0.0
  0
LINE
  5
DB
100
AcDbEntity
100
AcDbLine
  8
0
 62
256
370
-1
 48
1.0
  6
ByLayer
 10
30.0
 20
52.5
 30
0.0
 11
32.0
 21
52.5
 31
0.0
  0
LINE
  5
DC
100
AcDbEntity
100
AcDbLine
  8
0
 62
256
370
-1
 48
1.0
  6
ByLayer
 10
30.0
 20
57.5
 30
0.0
 11
32.0
 21
57.5
 31
0.0
  0
LINE
  5
DD
100
AcDbEntity
100
AcDbLine
  8
0
 62
256
370
-1
 48
1.0
  6
ByLayer
 10
30.0
 20
65.0
 30
0.0
 11
35.0
 21
65.0
 31
0.0
  0
LINE
  5
DE
100
AcDbEntity
100
AcDbLine
  8
0
 62
256
370
-1
 48
1.0
  6
ByLayer
 10
30.0
 20
70.0
 30
0.0
 11
35.0
 21
70.0
 31
0.0
  0
LINE
  5
DF
100
AcDbEntity
100
AcDbLine
  8
0
 62
256
370
-1
 48
1.0
  6
ByLayer
 10
30.0
 20
62.5
 30
0.0
 11
32.0
 21
62.5
 31
0.0
  0
LINE
  5
E0
100
AcDbEntity
100
AcDbLine
  8
0
 62
256
370
-1
 48
1.0
  6
ByLayer
 10
30.0
 20
67.5
 30
0.0
 11
32.0
 21
67.5
 31
0.0
  0
MTEXT
  5
E1
100
AcDbEntity
100
AcDbMText
  8
0
 62
256
370
-1
 48
1.0
  6
ByLayer
 10
37.0
 20
25.0
 30
0.0
 40
1.0
 41
3.2222222222200001
 71
4
 72
1
  1
25mm
  7
textstyle14
 50
0.0
 73
2
 44
1.0
  0
MTEXT
  5
E2
100
AcDbEntity
100
AcDbMText
  8
0
 62
256
370
-1
 48
1.0
  6
ByLayer
 10
37.0
 20
30.0
 30
0.0
 40
1.0
 41
3.2222222222200001
 71
4
 72
1
  1
30mm
  7
textstyle15
 50
0.0
 73
2
 44
1.0
  0
MTEXT
  5
E3
100
AcDbEntity
100
AcDbMText
  8
0
 62
256
370
-1
 48
1.0
  6
ByLayer
 10
37.0
 20
35.0
 30
0.0
 40
1.0
 41
3.2222222222200001
 71
4
 72
1
  1
35mm
  7
textstyle16
 50
0.0
 73
2
 44
1.0
  0
MTEXT
  5
E4
100
AcDbEntity
100
AcDbMText
  8
0
 62
256
370
-1
 48
1.0
  6
ByLayer
 10
37.0
 20
40.0
 30
0.0
 40
1.0
 41
3.3333333333300001
 71
4
 72
1
  1
40mm
  7
textstyle17
 50
0.0
 73
2
 44
1.0
  0
MTEXT
  5
E5
100
AcDbEntity
100
AcDbMText
  8
0
 62
256
370
-1
 48
1.0
  6
ByLayer
 10
37.0
 20
45.0
 30
0.0
 40
1.0
 41
3.3333333333300001
 71
4
 72
1
  1
45mm
  7
textstyle18
 50
0.0
 73
2
 44
1.0
  0
MTEXT
  5
E6
100
AcDbEntity
100
AcDbMText
  8
0
 62
256
370
-1
 48
1.0
  6
ByLayer
 10
37.0
 20
50.0
 30
0.0
 40
1.0
 41
3.2222222222200001
 71
4
 72
1
  1
50mm
  7
textstyle19
 50
0.0
 73
2
 44
1.0
  0
MTEXT
  5
E7
100
AcDbEntity
100
AcDbMText
  8
0
 62
256
370
-1
 48
1.0
  6
ByLayer
 10
37.0
 20
55.0
 30
0.0
 40
1.0
 41
3.2222222222200001
 71
4
 72
1
  1
55mm
  7
textstyle20
 50
0.0
 73
2
 44
1.0
  0
MTEXT
  5
E8
100
AcDbEntity
100
AcDbMText
  8
0
 62
256
370
-1
 48
1.0
  6
ByLayer
 10
37.0
 20
60.0
 30
0.0
 40
1.0
 41
3.2222222222200001
 71
4
 72
1
  1
60mm
  7
textstyle21
 50
0.0
 73
2
 44
1.0
  0
MTEXT
  5
E9
100
AcDbEntity
100
AcDbMText
  8
0
 62
256
370
-1
 48
1.0
  6
ByLayer
 10
37.0
 20
65.0
 30
0.0
 40
1.0
 41
3.2222222222200001
 71
4
 72
1
  1
65mm
  7
textstyle22
 50
0.0
 73
2
 44
1.0
  0
MTEXT
  5
EA
100
AcDbEntity
100
AcDbMText
  8
0
 62
256
370
-1
 48
1.0
  6
ByLayer
 10
37.0
 20
70.0
 30
0.0
 40
1.0
 41
3.2222222222200001
 71
4
 72
1
  1
70mm
  7
textstyle23
 50
0.0
 73
2
 44
1.0
  0
LINE
  5
EB
100
AcDbEntity
100
AcDbLine
  8
0
 62
256
370
-1
 48
1.0
  6
ByLayer
 10
30.0
 20
-25.0
 30
0.0
 11
35.0
 21
-25.0
 31
0.0
  0
LINE
  5
EC
100
AcDbEntity
100
AcDbLine
  8
0
 62
256
370
-1
 48
1.0
  6
ByLayer
 10
30.0
 20
-30.0
 30
0.0
 11
35.0
 21
-30.0
 31
0.0
  0
LINE
  5
ED
100
AcDbEntity
100
AcDbLine
  8
0
 62
256
370
-1
 48
1.0
  6
ByLayer
 10
30.0
 20
-22.5
 30
0.0
 11
32.0
 21
-22.5
 31
0.0
  0
LINE
  5
EE
100
AcDbEntity
100
AcDbLine
  8
0
 62
256
370
-1
 48
1.0
  6
ByLayer
 10
30.0
 20
-27.5
 30
0.0
 11
32.0
 21
-27.5
 31
0.0
  0
LINE
  5
EF
100
AcDbEntity
100
AcDbLine
  8
0
 62
256
370
-1
 48
1.0
  6
ByLayer
 10
30.0
 20
-35.0
 30
0.0
 11
35.0
 21
-35.0
 31
0.0
  0
LINE
  5
F0
100
AcDbEntity
100
AcDbLine
  8
0
 62
256
370
-1
 48
1.0
  6
ByLayer
 10
30.0
 20
-40.0
 30
0.0
 11
35.0
 21
-40.0
 31
0.0
  0
LINE
  5
F1
100
AcDbEntity
100
AcDbLine
  8
0
 62
256
370
-1
 48
1.0
  6
ByLayer
 10
30.0
 20
-32.5
 30
0.0
 11
32.0
 21
-32.5
 31
0.0
  0
LINE
  5
F2
100
AcDbEntity
100
AcDbLine
  8
0
 62
256
370
-1
 48
1.0
  6
ByLayer
 10
30.0
 20
-37.5
 30
0.0
 11
32.0
 21
-37.5
 31
0.0
  0
LINE
  5
F3
100
AcDbEntity
100
AcDbLine
  8
0
 62
256
370
-1
 48
1.0
  6
ByLayer
 10
30.0
 20
-45.0
 30
0.0
 11
35.0
 21
-45.0
 31
0.0
  0
LINE
  5
F4
100
AcDbEntity
100
AcDbLine
  8
0
 62
256
370
-1
 48
1.0
  6
ByLayer
 10
30.0
 20
-50.0
 30
0.0
 11
35.0
 21
-50.0
 31
0.0
  0
LINE
  5
F5
100
AcDbEntity
100
AcDbLine
  8
0
 62
256
370
-1
 48
1.0
  6
ByLayer
 10
30.0
 20
-42.5
 30
0.0
 11
32.0
 21
-42.5
 31
0.0
  0
LINE
  5
F6
100
AcDbEntity
100
AcDbLine
  8
0
 62
256
370
-1
 48
1.0
  6
ByLayer
 10
30.0
 20
-47.5
 30
0.0
 11
32.0
 21
-47.5
 31
0.0
  0
LINE
  5
F7
100
AcDbEntity
100
AcDbLine
  8
0
 62
256
370
-1
 48
1.0
  6
ByLayer
 10
30.0
 20
-55.0
 30
0.0
 11
35.0
 21
-55.0
 31
0.0
  0
LINE
  5
F8
100
AcDbEntity
100
AcDbLine
  8
0
 62
256
370
-1
 48
1.0
  6
ByLayer
 10
30.0
 20
-60.0
 30
0.0
 11
35.0
 21
-60.0
 31
0.0
  0
LINE
  5
F9
100
AcDbEntity
100
AcDbLine
  8
0
 62
256
370
-1
 48
1.0
  6
ByLayer
 10
30.0
 20
-52.5
 30
0.0
 11
32.0
 21
-52.5
 31
0.0
  0
LINE
  5
FA
100
AcDbEntity
100
AcDbLine
  8
0
 62
256
370
-1
 48
1.0
  6
ByLayer
 10
30.0
 20
-57.5
 30
0.0
 11
32.0
 21
-57.5
 31
0.0
  0
LINE
  5
FB
100
AcDbEntity
100
AcDbLine
  8
0
 62
256
370
-1
 48
1.0
  6
ByLayer
 10
30.0
 20
-65.0
 30
0.0
 11
35.0
 21
-65.0
 31
0.0
  0
LINE
  5
FC
100
AcDbEntity
100
AcDbLine
  8
0
 62
256
370
-1
 48
1.0
  6
ByLayer
 10
30.0
 20
-70.0
 30
0.0
 11
35.0
 21
-70.0
 31
0.0
  0
LINE
  5
FD
100
AcDbEntity
100
AcDbLine
  8
0
 62
256
370
-1
 48
1.0
  6
ByLayer
 10
30.0
 20
-62.5
 30
0.0
 11
32.0
 21
-62.5
 31
0.0
  0
LINE
  5
FE
100
AcDbEntity
100
AcDbLine
  8
0
 62
256
370
-1
 48
1.0
  6
ByLayer
 10
30.0
 20
-67.5
 30
0.0
 11
32.0
 21
-67.5
 31
0.0
  0
MTEXT
  5
FF
100
AcDbEntity
100
AcDbMText
  8
0
 62
256
370
-1
 48
1.0
  6
ByLayer
 10
37.0
 20
-25.0
 30
0.0
 40
1.0
 41
3.2222222222200001
 71
4
 72
1
  1
25mm
  7
textstyle24
 50
0.0
 73
2
 44
1.0
  0
MTEXT
  5
100
100
AcDbEntity
100
AcDbMText
  8
0
 62
256
370
-1
 48
1.0
  6
ByLayer
 10
37.0
 20
-30.0
 30
0.0
 40
1.0
 41
3.2222222222200001
 71
4
 72
1
  1
30mm
  7
textstyle25
 50
0.0
 73
2
 44
1.0
  0
MTEXT
  5
101
100
AcDbEntity
100
AcDbMText
  8
0
 62
256
370
-1
 48
1.0
  6
ByLayer
 10
37.0
 20
-35.0
 30
0.0
 40
1.0
 41
3.2222222222200001
 71
4
 72
1
  1
35mm
  7
textstyle26
 50
0.0
 73
2
 44
1.0
  0
MTEXT
  5
102
100
AcDbEntity
100
AcDbMText
  8
0
 62
256
370
-1
 48
1.0
  6
ByLayer
 10
37.0
 20
-40.0
 30
0.0
 40
1.0
 41
3.3333333333300001
 71
4
 72
1
  1
40mm
  7
textstyle27
 50
0.0
 73
2
 44
1.0
  0
MTEXT
  5
103
100
AcDbEntity
100
AcDbMText
  8
0
 62
256
370
-1
 48
1.0
  6
ByLayer
 10
37.0
 20
-45.0
 30
0.0
 40
1.0
 41
3.3333333333300001
 71
4
 72
1
  1
45mm
  7
textstyle28
 50
0.0
 73
2
 44
1.0
  0
MTEXT
  5
104
100
AcDbEntity
100
AcDbMText
  8
0
 62
256
370
-1
 48
1.0
  6
ByLayer
 10
37.0
 20
-50.0
 30
0.0
 40
1.0
 41
3.2222222222200001
 71
4
 72
1
  1
50mm
  7
textstyle29
 50
0.0
 73
2
 44
1.0
  0
MTEXT
  5
105
100
AcDbEntity
100
AcDbMText
  8
0
 62
256
370
-1
 48
1.0
  6
ByLayer
 10
37.0
 20
-55.0
 30
0.0
 40
1.0
 41
3.2222222222200001
 71
4
 72
1
  1
55mm
  7
textstyle30
 50
0.0
 73
2
 44
1.0
  0
MTEXT
  5
106
100
AcDbEntity
100
AcDbMText
  8
0
 62
256
370
-1
 48
1.0
  6
ByLayer
 10
37.0
 20
-60.0
 30
0.0
 40
1.0
 41
3.2222222222200001
 71
4
 72
1
  1
60mm
  7
textstyle31
 50
0.0
 73
2
 44
1.0
  0
MTEXT
  5
107
100
AcDbEntity
100
AcDbMText
  8
0
 62
256
370
-1
 48
1.0
  6
ByLayer
 10
37.0
 20
-65.0
 30
0.0
 40
1.0
 41
3.2222222222200001
 71
4
 72
1
  1
65mm
  7
textstyle32
 50
0.0
 73
2
 44
1.0
  0
MTEXT
  5
108
100
AcDbEntity
100
AcDbMText
  8
0
 62
256
370
-1
 48
1.0
  6
ByLayer
 10
37.0
 20
-70.0
 30
0.0
 40
1.0
 41
3.2222222222200001
 71
4
 72
1
  1
70mm
  7
textstyle33
 50
0.0
 73
2
 44
1.0
  0
LINE
  5
109
100
AcDbEntity
100
AcDbLine
  8
0
 62
256
370
-1
 48
1.0
  6
ByLayer
 10
-30.0
 20
0.0
 30
0.0
 11
-44.0
 21
0.0
 31
0.0
  0
LINE
  5
10A
100
AcDbEntity
100
AcDbLine
  8
0
 62
256
370
-1
 48
1.0
  6
ByLayer
 10
-30.0
 20
1.0
 30
0.0
 11
-32.0
 21
1.0
 31
0.0
  0
LINE
  5
10B
100
AcDbEntity
100
AcDbLine
  8
0
 62
256
370
-1
 48
1.0
  6
ByLayer
 10
-30.0
 20
2.0
 30
0.0
 11
-35.0
 21
2.0
 31
0.0
  0
LINE
  5
10C
100
AcDbEntity
100
AcDbLine
  8
0
 62
256
370
-1
 48
1.0
  6
ByLayer
 10
-30.0
 20
3.0
 30
0.0
 11
-32.0
 21
3.0
 31
0.0
  0
LINE
  5
10D
100
AcDbEntity
100
AcDbLine
  8
0
 62
256
370
-1
 48
1.0
  6
ByLayer
 10
-30.0
 20
4.0
 30
0.0
 11
-35.0
 21
4.0
 31
0.0
  0
LINE
  5
10E
100
AcDbEntity
100
AcDbLine
  8
0
 62
256
370
-1
 48
1.0
  6
ByLayer
 10
-30.0
 20
-1.0
 30
0.0
 11
-32.0
 21
-1.0
 31
0.0
  0
LINE
  5
10F
100
AcDbEntity
100
AcDbLine
  8
0
 62
256
370
-1
 48
1.0
  6
ByLayer
 10
-30.0
 20
-2.0
 30
0.0
 11
-35.0
 21
-2.0
 31
0.0
  0
LINE
  5
110
100
AcDbEntity
100
AcDbLine
  8
0
 62
256
370
-1
 48
1.0
  6
ByLayer
 10
-30.0
 20
-3.0
 30
0.0
 11
-32.0
 21
-3.0
 31
0.0
  0
LINE
  5
111
100
AcDbEntity
100
AcDbLine
  8
0
 62
256
370
-1
 48
1.0
  6
ByLayer
 10
-30.0
 20
-4.0
 30
0.0
 11
-35.0
 21
-4.0
 31
0.0
  0
LINE
  5
112
100
AcDbEntity
100
AcDbLine
  8
0
 62
256
370
-1
 48
1.0
  6
ByLayer
 10
-30.0
 20
-5.0
 30
0.0
 11
-32.0
 21
-5.0
 31
0.0
  0
LINE
  5
113
100
AcDbEntity
100
AcDbLine
  8
0
 62
256
370
-1
 48
1.0
  6
ByLayer
 10
-30.0
 20
-6.0
 30
0.0
 11
-35.0
 21
-6.0
 31
0.0
  0
LINE
  5
114
100
AcDbEntity
100
AcDbLine
  8
0
 62
256
370
-1
 48
1.0
  6
ByLayer
 10
-30.0
 20
-7.0
 30
0.0
 11
-32.0
 21
-7.0
 31
0.0
  0
LINE
  5
115
100
AcDbEntity
100
AcDbLine
  8
0
 62
256
370
-1
 48
1.0
  6
ByLayer
 10
-30.0
 20
-8.0
 30
0.0
 11
-35.0
 21
-8.0
 31
0.0
  0
LINE
  5
116
100
AcDbEntity
100
AcDbLine
  8
0
 62
256
370
-1
 48
1.0
  6
ByLayer
 10
-30.0
 20
-9.0
 30
0.0
 11
-32.0
 21
-9.0
 31
0.0
  0
LINE
  5
117
100
AcDbEntity
100
AcDbLine
  8
0
 62
256
370
-1
 48
1.0
  6
ByLayer
 10
-30.0
 20
-10.0
 30
0.0
 11
-35.0
 21
-10.0
 31
0.0
  0
LINE
  5
118
100
AcDbEntity
100
AcDbLine
  8
0
 62
256
370
-1
 48
1.0
  6
ByLayer
 10
-30.0
 20
5.0
 30
0.0
 11
-32.0
 21
5.0
 31
0.0
  0
LINE
  5
119
100
AcDbEntity
100
AcDbLine
  8
0
 62
256
370
-1
 48
1.0
  6
ByLayer
 10
-30.0
 20
6.0
 30
0.0
 11
-35.0
 21
6.0
 31
0.0
  0
LINE
  5
11A
100
AcDbEntity
100
AcDbLine
  8
0
 62
256
370
-1
 48
1.0
  6
ByLayer
 10
-30.0
 20
7.0
 30
0.0
 11
-32.0
 21
7.0
 31
0.0
  0
LINE
  5
11B
100
AcDbEntity
100
AcDbLine
  8
0
 62
256
370
-1
 48
1.0
  6
ByLayer
 10
-30.0
 20
8.0
 30
0.0
 11
-35.0
 21
8.0
 31
0.0
  0
LINE
  5
11C
100
AcDbEntity
100
AcDbLine
  8
0
 62
256
370
-1
 48
1.0
  6
ByLayer
 10
-30.0
 20
9.0
 30
0.0
 11
-32.0
 21
9.0
 31
0.0
  0
LINE
  5
11D
100
AcDbEntity
100
AcDbLine
  8
0
 62
256
370
-1
 48
1.0
  6
ByLayer
 10
-30.0
 20
10.0
 30
0.0
 11
-35.0
 21
10.0
 31
0.0
  0
LINE
  5
11E
100
AcDbEntity
100
AcDbLine
  8
0
 62
256
370
-1
 48
1.0
  6
ByLayer
 10
-30.0
 20
15.0
 30
0.0
 11
-35.0
 21
15.0
 31
0.0
  0
LINE
  5
11F
100
AcDbEntity
100
AcDbLine
  8
0
 62
256
370
-1
 48
1.0
  6
ByLayer
 10
-30.0
 20
20.0
 30
0.0
 11
-35.0
 21
20.0
 31
0.0
  0
LINE
  5
120
100
AcDbEntity
100
AcDbLine
  8
0
 62
256
370
-1
 48
1.0
  6
ByLayer
 10
-30.0
 20
12.5
 30
0.0
 11
-32.0
 21
12.5
 31
0.0
  0
LINE
  5
121
100
AcDbEntity
100
AcDbLine
  8
0
 62
256
370
-1
 48
1.0
  6
ByLayer
 10
-30.0
 20
17.5
 30
0.0
 11
-32.0
 21
17.5
 31
0.0
  0
LINE
  5
122
100
AcDbEntity
100
AcDbLine
  8
0
 62
256
370
-1
 48
1.0
  6
ByLayer
 10
-30.0
 20
-15.0
 30
0.0
 11
-35.0
 21
-15.0
 31
0.0
  0
LINE
  5
123
100
AcDbEntity
100
AcDbLine
  8
0
 62
256
370
-1
 48
1.0
  6
ByLayer
 10
-30.0
 20
-20.0
 30
0.0
 11
-35.0
 21
-20.0
 31
0.0
  0
LINE
  5
124
100
AcDbEntity
100
AcDbLine
  8
0
 62
256
370
-1
 48
1.0
  6
ByLayer
 10
-30.0
 20
-12.5
 30
0.0
 11
-32.0
 21
-12.5
 31
0.0
  0
LINE
  5
125
100
AcDbEntity
100
AcDbLine
  8
0
 62
256
370
-1
 48
1.0
  6
ByLayer
 10
-30.0
 20
-17.5
 30
0.0
 11
-32.0
 21
-17.5
 31
0.0
  0
LINE
  5
126
100
AcDbEntity
100
AcDbLine
  8
0
 62
256
370
-1
 48
1.0
  6
ByLayer
 10
-30.0
 20
25.0
 30
0.0
 11
-35.0
 21
25.0
 31
0.0
  0
LINE
  5
127
100
AcDbEntity
100
AcDbLine
  8
0
 62
256
370
-1
 48
1.0
  6
ByLayer
 10
-30.0
 20
30.0
 30
0.0
 11
-35.0
 21
30.0
 31
0.0
  0
LINE
  5
128
100
AcDbEntity
100
AcDbLine
  8
0
 62
256
370
-1
 48
1.0
  6
ByLayer
 10
-30.0
 20
22.5
 30
0.0
 11
-32.0
 21
22.5
 31
0.0
  0
LINE
  5
129
100
AcDbEntity
100
AcDbLine
  8
0
 62
256
370
-1
 48
1.0
  6
ByLayer
 10
-30.0
 20
27.5
 30
0.0
 11
-32.0
 21
27.5
 31
0.0
  0
LINE
  5
12A
100
AcDbEntity
100
AcDbLine
  8
0
 62
256
370
-1
 48
1.0
  6
ByLayer
 10
-30.0
 20
35.0
 30
0.0
 11
-35.0
 21
35.0
 31
0.0
  0
LINE
  5
12B
100
AcDbEntity
100
AcDbLine
  8
0
 62
256
370
-1
 48
1.0
  6
ByLayer
 10
-30.0
 20
40.0
 30
0.0
 11
-35.0
 21
40.0
 31
0.0
  0
LINE
  5
12C
100
AcDbEntity
100
AcDbLine
  8
0
 62
256
370
-1
 48
1.0
  6
ByLayer
 10
-30.0
 20
32.5
 30
0.0
 11
-32.0
 21
32.5
 31
0.0
  0
LINE
  5
12D
100
AcDbEntity
100
AcDbLine
  8
0
 62
256
370
-1
 48
1.0
  6
ByLayer
 10
-30.0
 20
37.5
 30
0.0
 11
-32.0
 21
37.5
 31
0.0
  0
LINE
  5
12E
100
AcDbEntity
100
AcDbLine
  8
0
 62
256
370
-1
 48
1.0
  6
ByLayer
 10
-30.0
 20
45.0
 30
0.0
 11
-35.0
 21
45.0
 31
0.0
  0
LINE
  5
12F
100
AcDbEntity
100
AcDbLine
  8
0
 62
256
370
-1
 48
1.0
  6
ByLayer
 10
-30.0
 20
50.0
 30
0.0
 11
-35.0
 21
50.0
 31
0.0
  0
LINE
  5
130
100
AcDbEntity
100
AcDbLine
  8
0
 62
256
370
-1
 48
1.0
  6
ByLayer
 10
-30.0
 20
42.5
 30
0.0
 11
-32.0
 21
42.5
 31
0.0
  0
LINE
  5
131
100
AcDbEntity
100
AcDbLine
  8
0
 62
256
370
-1
 48
1.0
  6
ByLayer
 10
-30.0
 20
47.5
 30
0.0
 11
-32.0
 21
47.5
 31
0.0
  0
LINE
  5
132
100
AcDbEntity
100
AcDbLine
  8
0
 62
256
370
-1
 48
1.0
  6
ByLayer
 10
-30.0
 20
55.0
 30
0.0
 11
-35.0
 21
55.0
 31
0.0
  0
LINE
  5
133
100
AcDbEntity
100
AcDbLine
  8
0
 62
256
370
-1
 48
1.0
  6
ByLayer
 10
-30.0
 20
60.0
 30
0.0
 11
-35.0
 21
60.0
 31
0.0
  0
LINE
  5
134
100
AcDbEntity
100
AcDbLine
  8
0
 62
256
370
-1
 48
1.0
  6
ByLayer
 10
-30.0
 20
52.5
 30
0.0
 11
-32.0
 21
52.5
 31
0.0
  0
LINE
  5
135
100
AcDbEntity
100
AcDbLine
  8
0
 62
256
370
-1
 48
1.0
  6
ByLayer
 10
-30.0
 20
57.5
 30
0.0
 11
-32.0
 21
57.5
 31
0.0
  0
LINE
  5
136
100
AcDbEntity
100
AcDbLine
  8
0
 62
256
370
-1
 48
1.0
  6
ByLayer
 10
-30.0
 20
65.0
 30
0.0
 11
-35.0
 21
65.0
 31
0.0
  0
LINE
  5
137
100
AcDbEntity
100
AcDbLine
  8
0
 62
256
370
-1
 48
1.0
  6
ByLayer
 10
-30.0
 20
70.0
 30
0.0
 11
-35.0
 21
70.0
 31
0.0
  0
LINE
  5
138
100
AcDbEntity
100
AcDbLine
  8
0
 62
256
370
-1
 48
1.0
  6
ByLayer
 10
-30.0
 20
62.5
 30
0.0
 11
-32.0
 21
62.5
 31
0.0
  0
LINE
  5
139
100
AcDbEntity
100
AcDbLine
  8
0
 62
256
370
-1
 48
1.0
  6
ByLayer
 10
-30.0
 20
67.5
 30
0.0
 11
-32.0
 21
67.5
 31
0.0
  0
LINE
  5
13A
100
AcDbEntity
100
AcDbLine
  8
0
 62
256
370
-1
 48
1.0
  6
ByLayer
 10
-30.0
 20
-25.0
 30
0.0
 11
-35.0
 21
-25.0
 31
0.0
  0
LINE
  5
13B
100
AcDbEntity
100
AcDbLine
  8
0
 62
256
370
-1
 48
1.0
  6
ByLayer
 10
-30.0
 20
-30.0
 30
0.0
 11
-35.0
 21
-30.0
 31
0.0
  0
LINE
  5
13C
100
AcDbEntity
100
AcDbLine
  8
0
 62
256
370
-1
 48
1.0
  6
ByLayer
 10
-30.0
 20
-22.5
 30
0.0
 11
-32.0
 21
-22.5
 31
0.0
  0
LINE
  5
13D
100
AcDbEntity
100
AcDbLine
  8
0
 62
256
370
-1
 48
1.0
  6
ByLayer
 10
-30.0
 20
-27.5
 30
0.0
 11
-32.0
 21
-27.5
 31
0.0
  0
LINE
  5
13E
100
AcDbEntity
100
AcDbLine
  8
0
 62
256
370
-1
 48
1.0
  6
ByLayer
 10
-30.0
 20
-35.0
 30
0.0
 11
-35.0
 21
-35.0
 31
0.0
  0
LINE
  5
13F
100
AcDbEntity
100
AcDbLine
  8
0
 62
256
370
-1
 48
1.0
  6
ByLayer
 10
-30.0
 20
-40.0
 30
0.0
 11
-35.0
 21
-40.0
 31
0.0
  0
LINE
  5
140
100
AcDbEntity
100
AcDbLine
  8
0
 62
256
370
-1
 48
1.0
  6
ByLayer
 10
-30.0
 20
-32.5
 30
0.0
 11
-32.0
 21
-32.5
 31
0.0
  0
LINE
  5
141
100
AcDbEntity
100
AcDbLine
  8
0
 62
256
370
-1
 48
1.0
  6
ByLayer
 10
-30.0
 20
-37.5
 30
0.0
 11
-32.0
 21
-37.5
 31
0.0
  0
LINE
  5
142
100
AcDbEntity
100
AcDbLine
  8
0
 62
256
370
-1
 48
1.0
  6
ByLayer
 10
-30.0
 20
-45.0
 30
0.0
 11
-35.0
 21
-45.0
 31
0.0
  0
LINE
  5
143
100
AcDbEntity
100
AcDbLine
  8
0
 62
256
370
-1
 48
1.0
  6
ByLayer
 10
-30.0
 20
-50.0
 30
0.0
 11
-35.0
 21
-50.0
 31
0.0
  0
LINE
  5
144
100
AcDbEntity
100
AcDbLine
  8
0
 62
256
370
-1
 48
1.0
  6
ByLayer
 10
-30.0
 20
-42.5
 30
0.0
 11
-32.0
 21
-42.5
 31
0.0
  0
LINE
  5
145
100
AcDbEntity
100
AcDbLine
  8
0
 62
256
370
-1
 48
1.0
  6
ByLayer
 10
-30.0
 20
-47.5
 30
0.0
 11
-32.0
 21
-47.5
 31
0.0
  0
LINE
  5
146
100
AcDbEntity
100
AcDbLine
  8
0
 62
256
370
-1
 48
1.0
  6
ByLayer
 10
-30.0
 20
-55.0
 30
0.0
 11
-35.0
 21
-55.0
 31
0.0
  0
LINE
  5
147
100
AcDbEntity
100
AcDbLine
  8
0
 62
256
370
-1
 48
1.0
  6
ByLayer
 10
-30.0
 20
-60.0
 30
0.0
 11
-35.0
 21
-60.0
 31
0.0
  0
LINE
  5
148
100
AcDbEntity
100
AcDbLine
  8
0
 62
256
370
-1
 48
1.0
  6
ByLayer
 10
-30.0
 20
-52.5
 30
0.0
 11
-32.0
 21
-52.5
 31
0.0
  0
LINE
  5
149
100
AcDbEntity
100
AcDbLine
  8
0
 62
256
370
-1
 48
1.0
  6
ByLayer
 10
-30.0
 20
-57.5
 30
0.0
 11
-32.0
 21
-57.5
 31
0.0
  0
LINE
  5
14A
100
AcDbEntity
100
AcDbLine
  8
0
 62
256
370
-1
 48
1.0
  6
ByLayer
 10
-30.0
 20
-65.0
 30
0.0
 11
-35.0
 21
-65.0
 31
0.0
  0
LINE
  5
14B
100
AcDbEntity
100
AcDbLine
  8
0
 62
256
370
-1
 48
1.0
  6
ByLayer
 10
-30.0
 20
-70.0
 30
0.0
 11
-35.0
 21
-70.0
 31
0.0
  0
LINE
  5
14C
100
AcDbEntity
100
AcDbLine
  8
0
 62
256
370
-1
 48
1.0
  6
ByLayer
 10
-30.0
 20
-62.5
 30
0.0
 11
-32.0
 21
-62.5
 31
0.0
  0
LINE
  5
14D
100
AcDbEntity
100
AcDbLine
  8
0
 62
256
370
-1
 48
1.0
  6
ByLayer
 10
-30.0
 20
-67.5
 30
0.0
 11
-32.0
 21
-67.5
 31
0.0
  0
LINE
  5
14E
100
AcDbEntity
100
AcDbLine
  8
0
 62
256
370
-1
 48
1.0
  6
ByLayer
 10
-30.0
 20
72.0
 30
0.0
 11
-30.0
 21
-72.0
 31
0.0
  0
LINE
  5
14F
100
AcDbEntity
100
AcDbLine
  8
0
 62
256
370
-1
 48
1.0
  6
ByLayer
 10
30.0
 20
-72.0
 30
0.0
 11
30.0
 21
72.0
 31
0.0
  0
MTEXT
  5
150
100
AcDbEntity
100
AcDbMText
  8
0
 62
256
370
-1
 48
1.0
  6
ByLayer
 10
0.0
 20
35.0
 30
0.0
 40
1.0
 41
8.1944442324400004
 71
5
 72
1
  1
\H3;BACK FOCUS
  7
textstyle34
 50
0.0
 73
2
 44
1.0
  0
MTEXT
  5
151
100
AcDbEntity
100
AcDbMText
  8
0
 62
256
370
-1
 48
1.0
  6
ByLayer
 10
0.0
 20
-35.0
 30
0.0
 40
1.0
 41
8.9722220102199994
 71
5
 72
1
  1
\H3;FRONT FOCUS
  7
textstyle35
 50
0.0
 73
2
 44
1.0
  0
MTEXT
  5
152
100
AcDbEntity
100
AcDbMText
  8
0
 62
256
370
-1
 48
1.0
  6
ByLayer
 10
-36.9999999999999858
 20
-40.0000000000000142
 30
0.0
 40
1.0
 41
3.3333333333300001
 71
6
 72
1
  1
40mm
  7
textstyle36
 50
360.0
 73
2
 44
1.0
  0
MTEXT
  5
153
100
AcDbEntity
100
AcDbMText
  8
0
 62
256
370
-1
 48
1.0
  6
ByLayer
 10
-36.9999999999999787
 20
-45.0000000000000142
 30
0.0
 40
1.0
 41
3.3333333333300001
 71
6
 72
1
  1
45mm
  7
textstyle37
 50
360.0
 73
2
 44
1.0
  0
MTEXT
  5
154
100
AcDbEntity
100
AcDbMText
  8
0
 62
256
370
-1
 48
1.0
  6
ByLayer
 10
-36.9999999999999858
 20
-50.0
 30
0.0
 40
1.0
 41
3.2222222222200001
 71
6
 72
1
  1
50mm
  7
textstyle38
 50
360.0
 73
2
 44
1.0
  0
MTEXT
  5
155
100
AcDbEntity
100
AcDbMText
  8
0
 62
256
370
-1
 48
1.0
  6
ByLayer
 10
-36.9999999999999716
 20
-55.0000000000000071
 30
0.0
 40
1.0
 41
3.2222222222200001
 71
6
 72
1
  1
55mm
  7
textstyle39
 50
360.0
 73
2
 44
1.0
  0
MTEXT
  5
156
100
AcDbEntity
100
AcDbMText
  8
0
 62
256
370
-1
 48
1.0
  6
ByLayer
 10
-36.9999999999999929
 20
25.0000000000000142
 30
0.0
 40
1.0
 41
3.2222222222200001
 71
6
 72
1
  1
25mm
  7
textstyle40
 50
360.0
 73
2
 44
1.0
  0
MTEXT
  5
157
100
AcDbEntity
100
AcDbMText
  8
0
 62
256
370
-1
 48
1.0
  6
ByLayer
 10
-36.9999999999999787
 20
-60.0
 30
0.0
 40
1.0
 41
3.2222222222200001
 71
6
 72
1
  1
60mm
  7
textstyle41
 50
360.0
 73
2
 44
1.0
  0
MTEXT
  5
158
100
AcDbEntity
100
AcDbMText
  8
0
 62
256
370
-1
 48
1.0
  6
ByLayer
 10
-36.9999999999999929
 20
30.0000000000000071
 30
0.0
 40
1.0
 41
3.2222222222200001
 71
6
 72
1
  1
30mm
  7
textstyle42
 50
360.0
 73
2
 44
1.0
  0
MTEXT
  5
159
100
AcDbEntity
100
AcDbMText
  8
0
 62
256
370
-1
 48
1.0
  6
ByLayer
 10
-37.0000000000000071
 20
-65.0
 30
0.0
 40
1.0
 41
3.2222222222200001
 71
6
 72
1
  1
65mm
  7
textstyle43
 50
360.0
 73
2
 44
1.0
  0
MTEXT
  5
15A
100
AcDbEntity
100
AcDbMText
  8
0
 62
256
370
-1
 48
1.0
  6
ByLayer
 10
-36.9999999999999929
 20
35.0000000000000071
 30
0.0
 40
1.0
 41
3.2222222222200001
 71
6
 72
1
  1
35mm
  7
textstyle44
 50
360.0
 73
2
 44
1.0
  0
MTEXT
  5
15B
100
AcDbEntity
100
AcDbMText
  8
0
 62
256
370
-1
 48
1.0
  6
ByLayer
 10
-37.0000000000000142
 20
-70.0
 30
0.0
 40
1.0
 41
3.2222222222200001
 71
6
 72
1
  1
70mm
  7
textstyle45
 50
360.0
 73
2
 44
1.0
  0
MTEXT
  5
15C
100
AcDbEntity
100
AcDbMText
  8
0
 62
256
370
-1
 48
1.0
  6
ByLayer
 10
-37.0
 20
1.999999999999968
 30
0.0
 40
1.0
 41
2.4444444444400002
 71
6
 72
1
  1
2mm
  7
textstyle46
 50
360.0
 73
2
 44
1.0
  0
MTEXT
  5
15D
100
AcDbEntity
100
AcDbMText
  8
0
 62
256
370
-1
 48
1.0
  6
ByLayer
 10
-37.0
 20
40.0
 30
0.0
 40
1.0
 41
3.3333333333300001
 71
6
 72
1
  1
40mm
  7
textstyle47
 50
360.0
 73
2
 44
1.0
  0
MTEXT
  5
15E
100
AcDbEntity
100
AcDbMText
  8
0
 62
256
370
-1
 48
1.0
  6
ByLayer
 10
-37.0
 20
4.0000000000000133
 30
0.0
 40
1.0
 41
2.5555555555599998
 71
6
 72
1
  1
4mm
  7
textstyle48
 50
360.0
 73
2
 44
1.0
  0
MTEXT
  5
15F
100
AcDbEntity
100
AcDbMText
  8
0
 62
256
370
-1
 48
1.0
  6
ByLayer
 10
-36.9999999999999929
 20
45.0000000000000071
 30
0.0
 40
1.0
 41
3.3333333333300001
 71
6
 72
1
  1
45mm
  7
textstyle49
 50
360.0
 73
2
 44
1.0
  0
MTEXT
  5
160
100
AcDbEntity
100
AcDbMText
  8
0
 62
256
370
-1
 48
1.0
  6
ByLayer
 10
-37.0
 20
5.9999999999999716
 30
0.0
 40
1.0
 41
2.4444444444400002
 71
6
 72
1
  1
6mm
  7
textstyle50
 50
360.0
 73
2
 44
1.0
  0
MTEXT
  5
161
100
AcDbEntity
100
AcDbMText
  8
0
 62
256
370
-1
 48
1.0
  6
ByLayer
 10
-36.9999999999999929
 20
50.0000000000000071
 30
0.0
 40
1.0
 41
3.2222222222200001
 71
6
 72
1
  1
50mm
  7
textstyle51
 50
360.0
 73
2
 44
1.0
  0
MTEXT
  5
162
100
AcDbEntity
100
AcDbMText
  8
0
 62
256
370
-1
 48
1.0
  6
ByLayer
 10
-37.0
 20
8.0000000000000124
 30
0.0
 40
1.0
 41
2.4444444444400002
 71
6
 72
1
  1
8mm
  7
textstyle52
 50
360.0
 73
2
 44
1.0
  0
MTEXT
  5
163
100
AcDbEntity
100
AcDbMText
  8
0
 62
256
370
-1
 48
1.0
  6
ByLayer
 10
-36.9999999999999858
 20
55.0000000000000142
 30
0.0
 40
1.0
 41
3.2222222222200001
 71
6
 72
1
  1
55mm
  7
textstyle53
 50
360.0
 73
2
 44
1.0
  0
MTEXT
  5
164
100
AcDbEntity
100
AcDbMText
  8
0
 62
256
370
-1
 48
1.0
  6
ByLayer
 10
-37.0
 20
9.9999999999999858
 30
0.0
 40
1.0
 41
3.0
 71
6
 72
1
  1
10mm
  7
textstyle54
 50
360.0
 73
2
 44
1.0
  0
MTEXT
  5
165
100
AcDbEntity
100
AcDbMText
  8
0
 62
256
370
-1
 48
1.0
  6
ByLayer
 10
-37.0000000000000071
 20
59.9999999999999929
 30
0.0
 40
1.0
 41
3.2222222222200001
 71
6
 72
1
  1
60mm
  7
textstyle55
 50
360.0
 73
2
 44
1.0
  0
MTEXT
  5
166
100
AcDbEntity
100
AcDbMText
  8
0
 62
256
370
-1
 48
1.0
  6
ByLayer
 10
-37.0
 20
15.0000000000000089
 30
0.0
 40
1.0
 41
3.0
 71
6
 72
1
  1
15mm
  7
textstyle56
 50
360.0
 73
2
 44
1.0
  0
MTEXT
  5
167
100
AcDbEntity
100
AcDbMText
  8
0
 62
256
370
-1
 48
1.0
  6
ByLayer
 10
-37.0
 20
65.0
 30
0.0
 40
1.0
 41
3.2222222222200001
 71
6
 72
1
  1
65mm
  7
textstyle57
 50
360.0
 73
2
 44
1.0
  0
MTEXT
  5
168
100
AcDbEntity
100
AcDbMText
  8
0
 62
256
370
-1
 48
1.0
  6
ByLayer
 10
-36.9999999999999929
 20
20.0000000000000213
 30
0.0
 40
1.0
 41
3.2222222222200001
 71
6
 72
1
  1
20mm
  7
textstyle58
 50
360.0
 73
2
 44
1.0
  0
MTEXT
  5
169
100
AcDbEntity
100
AcDbMText
  8
0
 62
256
370
-1
 48
1.0
  6
ByLayer
 10
-37.0000000000000071
 20
70.0
 30
0.0
 40
1.0
 41
3.2222222222200001
 71
6
 72
1
  1
70mm
  7
textstyle59
 50
360.0
 73
2
 44
1.0
  0
MTEXT
  5
16A
100
AcDbEntity
100
AcDbMText
  8
0
 62
256
370
-1
 48
1.0
  6
ByLayer
 10
-36.9999999999999858
 20
-20.0000000000000142
 30
0.0
 40
1.0
 41
3.2222222222200001
 71
6
 72
1
  1
20mm
  7
textstyle60
 50
360.0
 73
2
 44
1.0
  0
MTEXT
  5
16B
100
AcDbEntity
100
AcDbMText
  8
0
 62
256
370
-1
 48
1.0
  6
ByLayer
 10
-37.0000000000000071
 20
-14.9999999999999964
 30
0.0
 40
1.0
 41
3.0
 71
6
 72
1
  1
15mm
  7
textstyle61
 50
360.0
 73
2
 44
1.0
  0
MTEXT
  5
16C
100
AcDbEntity
100
AcDbMText
  8
0
 62
256
370
-1
 48
1.0
  6
ByLayer
 10
-37.0
 20
-10.0
 30
0.0
 40
1.0
 41
3.0
 71
6
 72
1
  1
10mm
  7
textstyle62
 50
360.0
 73
2
 44
1.0
  0
MTEXT
  5
16D
100
AcDbEntity
100
AcDbMText
  8
0
 62
256
370
-1
 48
1.0
  6
ByLayer
 10
-37.0
 20
-8.0000000000000071
 30
0.0
 40
1.0
 41
2.4444444444400002
 71
6
 72
1
  1
8mm
  7
textstyle63
 50
360.0
 73
2
 44
1.0
  0
MTEXT
  5
16E
100
AcDbEntity
100
AcDbMText
  8
0
 62
256
370
-1
 48
1.0
  6
ByLayer
 10
-37.0
 20
-6.0000000000000018
 30
0.0
 40
1.0
 41
2.4444444444400002
 71
6
 72
1
  1
6mm
  7
textstyle64
 50
360.0
 73
2
 44
1.0
  0
MTEXT
  5
16F
100
AcDbEntity
100
AcDbMText
  8
0
 62
256
370
-1
 48
1.0
  6
ByLayer
 10
-36.9999999999999929
 20
-4.000000000000016
 30
0.0
 40
1.0
 41
2.5555555555599998
 71
6
 72
1
  1
4mm
  7
textstyle65
 50
360.0
 73
2
 44
1.0
  0
MTEXT
  5
170
100
AcDbEntity
100
AcDbMText
  8
0
 62
256
370
-1
 48
1.0
  6
ByLayer
 10
-37.0
 20
-2.0000000000000018
 30
0.0
 40
1.0
 41
2.4444444444400002
 71
6
 72
1
  1
2mm
  7
textstyle66
 50
360.0
 73
2
 44
1.0
  0
MTEXT
  5
171
100
AcDbEntity
100
AcDbMText
  8
0
 62
256
370
-1
 48
1.0
  6
ByLayer
 10
-36.9999999999999929
 20
-25.0000000000000142
 30
0.0
 40
1.0
 41
3.2222222222200001
 71
6
 72
1
  1
25mm
  7
textstyle67
 50
360.0
 73
2
 44
1.0
  0
MTEXT
  5
172
100
AcDbEntity
100
AcDbMText
  8
0
 62
256
370
-1
 48
1.0
  6
ByLayer
 10
-37.0
 20
-30.0000000000000071
 30
0.0
 40
1.0
 41
3.2222222222200001
 71
6
 72
1
  1
30mm
  7
textstyle68
 50
360.0
 73
2
 44
1.0
  0
MTEXT
  5
173
100
AcDbEntity
100
AcDbMText
  8
0
 62
256
370
-1
 48
1.0
  6
ByLayer
 10
-36.9999999999999929
 20
-35.0000000000000142
 30
0.0
 40
1.0
 41
3.2222222222200001
 71
6
 72
1
  1
35mm
  7
textstyle69
 50
360.0
 73
2
 44
1.0
  0
LINE
  5
174
100
AcDbEntity
100
AcDbLine
  8
0
 62
256
370
-1
 48
1.0
  6
ByLayer
 10
0.0
 20
60.0
 30
0.0
 11
0.0
 21
40.0
 31
0.0
  0
LINE
  5
175
100
AcDbEntity
100
AcDbLine
  8
0
 62
256
370
-1
 48
1.0
  6
ByLayer
 10
0.0
 20
30.0
 30
0.0
 11
0.0
 21
10.0
 31
0.0
  0
LINE
  5
176
100
AcDbEntity
100
AcDbLine
  8
0
 62
256
370
-1
 48
1.0
  6
ByLayer
 10
0.0
 20
-10.0
 30
0.0
 11
0.0
 21
-30.0
 31
0.0
  0
LINE
  5
177
100
AcDbEntity
100
AcDbLine
  8
0
 62
256
370
-1
 48
1.0
  6
ByLayer
 10
0.0
 20
-40.0
 30
0.0
 11
0.0
 21
-60.0
 31
0.0
  0
HATCH
  5
178
  8
0
 62
256
370
-1
 48
1.0
  6
ByLayer
100
AcDbEntity
100
AcDbHatch
 10
0.0
 20
0.0
 30
0.0
210
0.0
220
0.0
230
1.0
  2
SOLID
 70
1
 71
0
 91
1
 92
1
 93
4
 72
1
 10
-1.0
 20
0.4999999999999999
 11
-1.0
 21
-0.5
 72
1
 10
-1.0
 20
-0.5
 11
1.0
 21
-0.5
 72
1
 10
1.0
 20
-0.5
 11
1.0
 21
0.4999999999999999
 72
1
 10
1.0
 20
0.4999999999999999
 11
-1.0
 21
0.4999999999999999
 97
0
 75
0
 76
1
 98
0
1001
ACAD
1010
0.0
1020
0.0
1030
0
  0
HATCH
  5
179
  8
0
 62
256
370
-1
 48
1.0
  6
ByLayer
100
AcDbEntity
100
AcDbHatch
 10
0.0
 20
0.0
 30
0.0
210
0.0
220
0.0
230
1.0
  2
SOLID
 70
1
 71
0
 91
1
 92
1
 93
4
 72
1
 10
3.0
 20
0.5
 11
3.0
 21
-0.5
 72
1
 10
3.0
 20
-0.5
 11
5.0
 21
-0.5
 72
1
 10
5.0
 20
-0.5
 11
5.0
 21
0.5
 72
1
 10
5.0
 20
0.5
 11
3.0
 21
0.5
 97
0
 75
0
 76
1
 98
0
1001
ACAD
1010
0.0
1020
0.0
1030
0
  0
HATCH
  5
17A
  8
0
 62
256
370
-1
 48
1.0
  6
ByLayer
100
AcDbEntity
100
AcDbHatch
 10
0.0
 20
0.0
 30
0.0
210
0.0
220
0.0
230
1.0
  2
SOLID
 70
1
 71
0
 91
1
 92
1
 93
4
 72
1
 10
7.0
 20
0.5
 11
7.0
 21
-0.5
 72
1
 10
7.0
 20
-0.5
 11
9.0
 21
-0.5
 72
1
 10
9.0
 20
-0.5
 11
9.0
 21
0.5
 72
1
 10
9.0
 20
0.5
 11
7.0
 21
0.5
 97
0
 75
0
 76
1
 98
0
1001
ACAD
1010
0.0
1020
0.0
1030
0
  0
HATCH
  5
17B
  8
0
 62
256
370
-1
 48
1.0
  6
ByLayer
100
AcDbEntity
100
AcDbHatch
 10
0.0
 20
0.0
 30
0.0
210
0.0
220
0.0
230
1.0
  2
SOLID
 70
1
 71
0
 91
1
 92
1
 93
4
 72
1
 10
11.0
 20
0.5
 11
11.0
 21
-0.5
 72
1
 10
11.0
 20
-0.5
 11
13.0
 21
-0.5
 72
1
 10
13.0
 20
-0.5
 11
13.0
 21
0.5
 72
1
 10
13.0
 20
0.5
 11
11.0
 21
0.5
 97
0
 75
0
 76
1
 98
0
1001
ACAD
1010
0.0
1020
0.0
1030
0
  0
HATCH
  5
17C
  8
0
 62
256
370
-1
 48
1.0
  6
ByLayer
100
AcDbEntity
100
AcDbHatch
 10
0.0
 20
0.0
 30
0.0
210
0.0
220
0.0
230
1.0
  2
SOLID
 70
1
 71
0
 91
1
 92
1
 93
4
 72
1
 10
15.0
 20
0.5
 11
15.0
 21
-0.5
 72
1
 10
15.0
 20
-0.5
 11
17.0
 21
-0.5
 72
1
 10
17.0
 20
-0.5
 11
17.0
 21
0.5
 72
1
 10
17.0
 20
0.5
 11
15.0
 21
0.5
 97
0
 75
0
 76
1
 98
0
1001
ACAD
1010
0.0
1020
0.0
1030
0
  0
HATCH
  5
17D
  8
0
 62
256
370
-1
 48
1.0
  6
ByLayer
100
AcDbEntity
100
AcDbHatch
 10
0.0
 20
0.0
 30
0.0
210
0.0
220
0.0
230
1.0
  2
SOLID
 70
1
 71
0
 91
1
 92
1
 93
4
 72
1
 10
19.0
 20
0.5
 11
19.0
 21
-0.5
 72
1
 10
19.0
 20
-0.5
 11
21.0
 21
-0.5
 72
1
 10
21.0
 20
-0.5
 11
21.0
 21
0.5
 72
1
 10
21.0
 20
0.5
 11
19.0
 21
0.5
 97
0
 75
0
 76
1
 98
0
1001
ACAD
1010
0.0
1020
0.0
1030
0
  0
HATCH
  5
17E
  8
0
 62
256
370
-1
 48
1.0
  6
ByLayer
100
AcDbEntity
100
AcDbHatch
 10
0.0
 20
0.0
 30
0.0
210
0.0
220
0.0
230
1.0
  2
SOLID
 70
1
 71
0
 91
1
 92
1
 93
4
 72
1
 10
23.0
 20
0.5
 11
23.0
 21
-0.5
 72
1
 10
23.0
 20
-0.5
 11
25.0
 21
-0.5
 72
1
 10
25.0
 20
-0.5
 11
25.0
 21
0.5
 72
1
 10
25.0
 20
0.5
 11
23.0
 21
0.5
 97
0
 75
0
 76
1
 98
0
1001
ACAD
1010
0.0
1020
0.0
1030
0
  0
HATCH
  5
17F
  8
0
 62
256
370
-1
 48
1.0
  6
ByLayer
100
AcDbEntity
100
AcDbHatch
 10
0.0
 20
0.0
 30
0.0
210
0.0
220
0.0
230
1.0
  2
SOLID
 70
1
 71
0
 91
1
 92
1
 93
4
 72
1
 10
27.0
 20
0.5
 11
27.0
 21
-0.5
 72
1
 10
27.0
 20
-0.5
 11
29.0
 21
-0.5
 72
1
 10
29.0
 20
-0.5
 11
29.0
 21
0.5
 72
1
 10
29.0
 20
0.5
 11
27.0
 21
0.5
 97
0
 75
0
 76
1
 98
0
1001
ACAD
1010
0.0
1020
0.0
1030
0
  0
HATCH
  5
180
  8
0
 62
256
370
-1
 48
1.0
  6
ByLayer
100
AcDbEntity
100
AcDbHatch
 10
0.0
 20
0.0
 30
0.0
210
0.0
220
0.0
230
1.0
  2
SOLID
 70
1
 71
0
 91
1
 92
1
 93
4
 72
1
 10
-29.0
 20
0.4999999999999999
 11
-29.0
 21
-0.5
 72
1
 10
-29.0
 20
-0.5
 11
-27.0
 21
-0.5
 72
1
 10
-27.0
 20
-0.5
 11
-27.0
 21
0.4999999999999999
 72
1
 10
-27.0
 20
0.4999999999999999
 11
-29.0
 21
0.4999999999999999
 97
0
 75
0
 76
1
 98
0
1001
ACAD
1010
0.0
1020
0.0
1030
0
  0
HATCH
  5
181
  8
0
 62
256
370
-1
 48
1.0
  6
ByLayer
100
AcDbEntity
100
AcDbHatch
 10
0.0
 20
0.0
 30
0.0
210
0.0
220
0.0
230
1.0
  2
SOLID
 70
1
 71
0
 91
1
 92
1
 93
4
 72
1
 10
-25.0
 20
0.5
 11
-25.0
 21
-0.5
 72
1
 10
-25.0
 20
-0.5
 11
-23.0
 21
-0.5
 72
1
 10
-23.0
 20
-0.5
 11
-23.0
 21
0.5
 72
1
 10
-23.0
 20
0.5
 11
-25.0
 21
0.5
 97
0
 75
0
 76
1
 98
0
1001
ACAD
1010
0.0
1020
0.0
1030
0
  0
HATCH
  5
182
  8
0
 62
256
370
-1
 48
1.0
  6
ByLayer
100
AcDbEntity
100
AcDbHatch
 10
0.0
 20
0.0
 30
0.0
210
0.0
220
0.0
230
1.0
  2
SOLID
 70
1
 71
0
 91
1
 92
1
 93
4
 72
1
 10
-21.0
 20
0.5
 11
-21.0
 21
-0.5
 72
1
 10
-21.0
 20
-0.5
 11
-19.0
 21
-0.5
 72
1
 10
-19.0
 20
-0.5
 11
-19.0
 21
0.5
 72
1
 10
-19.0
 20
0.5
 11
-21.0
 21
0.5
 97
0
 75
0
 76
1
 98
0
1001
ACAD
1010
0.0
1020
0.0
1030
0
  0
HATCH
  5
183
  8
0
 62
256
370
-1
 48
1.0
  6
ByLayer
100
AcDbEntity
100
AcDbHatch
 10
0.0
 20
0.0
 30
0.0
210
0.0
220
0.0
230
1.0
  2
SOLID
 70
1
 71
0
 91
1
 92
1
 93
4
 72
1
 10
-17.0
 20
0.5
 11
-17.0
 21
-0.5
 72
1
 10
-17.0
 20
-0.5
 11
-15.0
 21
-0.5
 72
1
 10
-15.0
 20
-0.5
 11
-15.0
 21
0.5
 72
1
 10
-15.0
 20
0.5
 11
-17.0
 21
0.5
 97
0
 75
0
 76
1
 98
0
1001
ACAD
1010
0.0
1020
0.0
1030
0
  0
HATCH
  5
184
  8
0
 62
256
370
-1
 48
1.0
  6
ByLayer
100
AcDbEntity
100
AcDbHatch
 10
0.0
 20
0.0
 30
0.0
210
0.0
220
0.0
230
1.0
  2
SOLID
 70
1
 71
0
 91
1
 92
1
 93
4
 72
1
 10
-13.0
 20
0.5
 11
-13.0
 21
-0.5
 72
1
 10
-13.0
 20
-0.5
 11
-11.0
 21
-0.5
 72
1
 10
-11.0
 20
-0.5
 11
-11.0
 21
0.5
 72
1
 10
-11.0
 20
0.5
 11
-13.0
 21
0.5
 97
0
 75
0
 76
1
 98
0
1001
ACAD
1010
0.0
1020
0.0
1030
0
  0
HATCH
  5
185
  8
0
 62
256
370
-1
 48
1.0
  6
ByLayer
100
AcDbEntity
100
AcDbHatch
 10
0.0
 20
0.0
 30
0.0
210
0.0
220
0.0
230
1.0
  2
SOLID
 70
1
 71
0
 91
1
 92
1
 93
4
 72
1
 10
-9.0
 20
0.5
 11
-9.0
 21
-0.5
 72
1
 10
-9.0
 20
-0.5
 11
-7.0
 21
-0.5
 72
1
 10
-7.0
 20
-0.5
 11
-7.0
 21
0.5
 72
1
 10
-7.0
 20
0.5
 11
-9.0
 21
0.5
 97
0
 75
0
 76
1
 98
0
1001
ACAD
1010
0.0
1020
0.0
1030
0
  0
HATCH
  5
186
  8
0
 62
256
370
-1
 48
1.0
  6
ByLayer
100
AcDbEntity
100
AcDbHatch
 10
0.0
 20
0.0
 30
0.0
210
0.0
220
0.0
230
1.0
  2
SOLID
 70
1
 71
0
 91
1
 92
1
 93
4
 72
1
 10
-5.0
 20
0.5
 11
-5.0
 21
-0.5
 72
1
 10
-5.0
 20
-0.5
 11
-3.0
 21
-0.5
 72
1
 10
-3.0
 20
-0.5
 11
-3.0
 21
0.5
 72
1
 10
-3.0
 20
0.5
 11
-5.0
 21
0.5
 97
0
 75
0
 76
1
 98
0
1001
ACAD
1010
0.0
1020
0.0
1030
0
  0
LINE
  5
187
100
AcDbEntity
100
AcDbLine
  8
0
 62
256
370
-1
 48
1.0
  6
ByLayer
 10
-29.9999999999999964
 20
0.4999999999999999
 30
0.0
 11
29.9999999999999964
 21
0.4999999999999999
 31
0.0
  0
LINE
  5
188
100
AcDbEntity
100
AcDbLine
  8
0
 62
256
370
-1
 48
1.0
  6
ByLayer
 10
29.9999999999999964
 20
-0.4999999999999999
 30
0.0
 11
-29.9999999999999964
 21
-0.4999999999999999
 31
0.0
  0
LINE
  5
189
100
AcDbEntity
100
AcDbLine
  8
0
 62
256
370
-1
 48
1.0
  6
ByLayer
 10
9.3999999999999986
 20
9.5999999999999996
 30
0.0
 11
7.3999999999999995
 21
7.5999999999999996
 31
0.0
  0
LINE
  5
18A
100
AcDbEntity
100
AcDbLine
  8
0
 62
256
370
-1
 48
1.0
  6
ByLayer
 10
5.0
 20
5.0
 30
0.0
 11
7.0
 21
8.0
 31
0.0
  0
LINE
  5
18B
100
AcDbEntity
100
AcDbLine
  8
0
 62
256
370
-1
 48
1.0
  6
ByLayer
 10
7.0
 20
8.0
 30
0.0
 11
8.0
 21
7.0
 31
0.0
  0
LINE
  5
18C
100
AcDbEntity
100
AcDbLine
  8
0
 62
256
370
-1
 48
1.0
  6
ByLayer
 10
8.0
 20
7.0
 30
0.0
 11
5.0
 21
5.0
 31
0.0
  0
HATCH
  5
18D
  8
0
 62
256
370
-1
 48
1.0
  6
ByLayer
100
AcDbEntity
100
AcDbHatch
 10
0.0
 20
0.0
 30
0.0
210
0.0
220
0.0
230
1.0
  2
SOLID
 70
1
 71
0
 91
1
 92
1
 93
3
 72
1
 10
5.0
 20
5.0
 11
7.0
 21
8.0
 72
1
 10
7.0
 20
8.0
 11
8.0
 21
7.0
 72
1
 10
8.0
 20
7.0
 11
5.0
 21
5.0
 97
0
 75
0
 76
1
 98
0
1001
ACAD
1010
0.0
1020
0.0
1030
0
  0
LINE
  5
18E
100
AcDbEntity
100
AcDbLine
  8
0
 62
256
370
-1
 48
1.0
  6
ByLayer
 10
9.3999999999999986
 20
9.5999999999999996
 30
0.0
 11
9.5999999999999996
 21
9.3999999999999986
 31
0.0
  0
LINE
  5
18F
100
AcDbEntity
100
AcDbLine
  8
0
 62
256
370
-1
 48
1.0
  6
ByLayer
 10
9.5999999999999996
 20
9.3999999999999986
 30
0.0
 11
7.5999999999999996
 21
7.3999999999999995
 31
0.0
  0
LINE
  5
190
100
AcDbEntity
100
AcDbLine
  8
0
 62
256
370
-1
 48
1.0
  6
ByLayer
 10
7.5999999999999996
 20
7.3999999999999995
 30
0.0
 11
7.3999999999999995
 21
7.5999999999999996
 31
0.0
  0
HATCH
  5
191
  8
0
 62
256
370
-1
 48
1.0
  6
ByLayer
100
AcDbEntity
100
AcDbHatch
 10
0.0
 20
0.0
 30
0.0
210
0.0
220
0.0
230
1.0
  2
SOLID
 70
1
 71
0
 91
1
 92
1
 93
4
 72
1
 10
9.3999999999999986
 20
9.5999999999999996
 11
7.3999999999999995
 21
7.5999999999999996
 72
1
 10
7.3999999999999995
 20
7.5999999999999996
 11
7.5999999999999996
 21
7.3999999999999995
 72
1
 10
7.5999999999999996
 20
7.3999999999999995
 11
9.5999999999999996
 21
9.3999999999999986
 72
1
 10
9.5999999999999996
 20
9.3999999999999986
 11
9.3999999999999986
 21
9.5999999999999996
 97
0
 75
0
 76
1
 98
0
1001
ACAD
1010
0.0
1020
0.0
1030
0
  0
LINE
  5
192
100
AcDbEntity
100
AcDbLine
  8
0
 62
256
370
-1
 48
1.0
  6
ByLayer
 10
-9.3999999999999897
 20
9.6000000000000121
 30
0.0
 11
-7.3999999999999941
 21
7.6000000000000103
 31
0.0
  0
LINE
  5
193
100
AcDbEntity
100
AcDbLine
  8
0
 62
256
370
-1
 48
1.0
  6
ByLayer
 10
-4.9999999999999991
 20
5.0
 30
0.0
 11
-6.9999999999999991
 21
8.0
 31
0.0
  0
LINE
  5
194
100
AcDbEntity
100
AcDbLine
  8
0
 62
256
370
-1
 48
1.0
  6
ByLayer
 10
-6.9999999999999991
 20
8.0
 30
0.0
 11
-7.9999999999999956
 21
7.0000000000000089
 31
0.0
  0
LINE
  5
195
100
AcDbEntity
100
AcDbLine
  8
0
 62
256
370
-1
 48
1.0
  6
ByLayer
 10
-7.9999999999999956
 20
7.0000000000000089
 30
0.0
 11
-4.9999999999999991
 21
5.0
 31
0.0
  0
HATCH
  5
196
  8
0
 62
256
370
-1
 48
1.0
  6
ByLayer
100
AcDbEntity
100
AcDbHatch
 10
0.0
 20
0.0
 30
0.0
210
0.0
220
0.0
230
1.0
  2
SOLID
 70
1
 71
0
 91
1
 92
1
 93
3
 72
1
 10
-4.9999999999999991
 20
5.0
 11
-6.9999999999999991
 21
8.0
 72
1
 10
-6.9999999999999991
 20
8.0
 11
-7.9999999999999956
 21
7.0000000000000089
 72
1
 10
-7.9999999999999956
 20
7.0000000000000089
 11
-4.9999999999999991
 21
5.0
 97
0
 75
0
 76
1
 98
0
1001
ACAD
1010
0.0
1020
0.0
1030
0
  0
LINE
  5
197
100
AcDbEntity
100
AcDbLine
  8
0
 62
256
370
-1
 48
1.0
  6
ByLayer
 10
-9.3999999999999897
 20
9.6000000000000121
 30
0.0
 11
-9.5999999999999961
 21
9.4000000000000021
 31
0.0
  0
LINE
  5
198
100
AcDbEntity
100
AcDbLine
  8
0
 62
256
370
-1
 48
1.0
  6
ByLayer
 10
-9.5999999999999961
 20
9.4000000000000021
 30
0.0
 11
-7.5999999999999988
 21
7.4000000000000004
 31
0.0
  0
LINE
  5
199
100
AcDbEntity
100
AcDbLine
  8
0
 62
256
370
-1
 48
1.0
  6
ByLayer
 10
-7.5999999999999988
 20
7.4000000000000004
 30
0.0
 11
-7.3999999999999941
 21
7.6000000000000103
 31
0.0
  0
HATCH
  5
19A
  8
0
 62
256
370
-1
 48
1.0
  6
ByLayer
100
AcDbEntity
100
AcDbHatch
 10
0.0
 20
0.0
 30
0.0
210
0.0
220
0.0
230
1.0
  2
SOLID
 70
1
 71
0
 91
1
 92
1
 93
4
 72
1
 10
-9.3999999999999897
 20
9.6000000000000121
 11
-7.3999999999999941
 21
7.6000000000000103
 72
1
 10
-7.3999999999999941
 20
7.6000000000000103
 11
-7.5999999999999988
 21
7.4000000000000004
 72
1
 10
-7.5999999999999988
 20
7.4000000000000004
 11
-9.5999999999999961
 21
9.4000000000000021
 72
1
 10
-9.5999999999999961
 20
9.4000000000000021
 11
-9.3999999999999897
 21
9.6000000000000121
 97
0
 75
0
 76
1
 98
0
1001
ACAD
1010
0.0
1020
0.0
1030
0
  0
HATCH
  5
19B
  8
0
 62
256
370
-1
 48
1.0
  6
ByLayer
100
AcDbEntity
100
AcDbHatch
 10
0.0
 20
0.0
 30
0.0
210
0.0
220
0.0
230
1.0
  2
SOLID
 70
1
 71
0
 91
1
 92
1
 93
3
 72
1
 10
5.0
 20
-4.9999999999999991
 11
7.0
 21
-8.0
 72
1
 10
7.0
 20
-8.0
 11
8.0
 21
-6.9999999999999991
 72
1
 10
8.0
 20
-6.9999999999999991
 11
5.0
 21
-4.9999999999999991
 97
0
 75
0
 76
1
 98
0
1001
ACAD
1010
0.0
1020
0.0
1030
0
  0
LINE
  5
19C
100
AcDbEntity
100
AcDbLine
  8
0
 62
256
370
-1
 48
1.0
  6
ByLayer
 10
9.3999999999999986
 20
-9.6000000000000014
 30
0.0
 11
9.5999999999999996
 21
-9.3999999999999986
 31
0.0
  0
LINE
  5
19D
100
AcDbEntity
100
AcDbLine
  8
0
 62
256
370
-1
 48
1.0
  6
ByLayer
 10
9.5999999999999996
 20
-9.3999999999999986
 30
0.0
 11
7.5999999999999996
 21
-7.4000000000000004
 31
0.0
  0
LINE
  5
19E
100
AcDbEntity
100
AcDbLine
  8
0
 62
256
370
-1
 48
1.0
  6
ByLayer
 10
7.5999999999999996
 20
-7.4000000000000004
 30
0.0
 11
7.3999999999999986
 21
-7.6000000000000014
 31
0.0
  0
HATCH
  5
19F
  8
0
 62
256
370
-1
 48
1.0
  6
ByLayer
100
AcDbEntity
100
AcDbHatch
 10
0.0
 20
0.0
 30
0.0
210
0.0
220
0.0
230
1.0
  2
SOLID
 70
1
 71
0
 91
1
 92
1
 93
4
 72
1
 10
9.3999999999999986
 20
-9.6000000000000014
 11
7.3999999999999986
 21
-7.6000000000000014
 72
1
 10
7.3999999999999986
 20
-7.6000000000000014
 11
7.5999999999999996
 21
-7.4000000000000004
 72
1
 10
7.5999999999999996
 20
-7.4000000000000004
 11
9.5999999999999996
 21
-9.3999999999999986
 72
1
 10
9.5999999999999996
 20
-9.3999999999999986
 11
9.3999999999999986
 21
-9.6000000000000014
 97
0
 75
0
 76
1
 98
0
1001
ACAD
1010
0.0
1020
0.0
1030
0
  0
LINE
  5
1A0
100
AcDbEntity
100
AcDbLine
  8
0
 62
256
370
-1
 48
1.0
  6
ByLayer
 10
-9.3999999999999915
 20
-9.6000000000000121
 30
0.0
 11
-7.3999999999999932
 21
-7.6000000000000112
 31
0.0
  0
LINE
  5
1A1
100
AcDbEntity
100
AcDbLine
  8
0
 62
256
370
-1
 48
1.0
  6
ByLayer
 10
-4.9999999999999982
 20
-5.0
 30
0.0
 11
-6.9999999999999991
 21
-8.0
 31
0.0
  0
LINE
  5
1A2
100
AcDbEntity
100
AcDbLine
  8
0
 62
256
370
-1
 48
1.0
  6
ByLayer
 10
-6.9999999999999991
 20
-8.0
 30
0.0
 11
-7.9999999999999973
 21
-7.0000000000000089
 31
0.0
  0
LINE
  5
1A3
100
AcDbEntity
100
AcDbLine
  8
0
 62
256
370
-1
 48
1.0
  6
ByLayer
 10
-7.9999999999999973
 20
-7.0000000000000089
 30
0.0
 11
-4.9999999999999982
 21
-5.0
 31
0.0
  0
HATCH
  5
1A4
  8
0
 62
256
370
-1
 48
1.0
  6
ByLayer
100
AcDbEntity
100
AcDbHatch
 10
0.0
 20
0.0
 30
0.0
210
0.0
220
0.0
230
1.0
  2
SOLID
 70
1
 71
0
 91
1
 92
1
 93
3
 72
1
 10
-4.9999999999999982
 20
-5.0
 11
-6.9999999999999991
 21
-8.0
 72
1
 10
-6.9999999999999991
 20
-8.0
 11
-7.9999999999999973
 21
-7.0000000000000089
 72
1
 10
-7.9999999999999973
 20
-7.0000000000000089
 11
-4.9999999999999982
 21
-5.0
 97
0
 75
0
 76
1
 98
0
1001
ACAD
1010
0.0
1020
0.0
1030
0
  0
LINE
  5
1A5
100
AcDbEntity
100
AcDbLine
  8
0
 62
256
370
-1
 48
1.0
  6
ByLayer
 10
-9.3999999999999915
 20
-9.6000000000000121
 30
0.0
 11
-9.5999999999999943
 21
-9.4000000000000057
 31
0.0
  0
LINE
  5
1A6
100
AcDbEntity
100
AcDbLine
  8
0
 62
256
370
-1
 48
1.0
  6
ByLayer
 10
-9.5999999999999943
 20
-9.4000000000000057
 30
0.0
 11
-7.5999999999999996
 21
-7.3999999999999995
 31
0.0
  0
LINE
  5
1A7
100
AcDbEntity
100
AcDbLine
  8
0
 62
256
370
-1
 48
1.0
  6
ByLayer
 10
-7.5999999999999996
 20
-7.3999999999999995
 30
0.0
 11
-7.3999999999999932
 21
-7.6000000000000112
 31
0.0
  0
HATCH
  5
1A8
  8
0
 62
256
370
-1
 48
1.0
  6
ByLayer
100
AcDbEntity
100
AcDbHatch
 10
0.0
 20
0.0
 30
0.0
210
0.0
220
0.0
230
1.0
  2
SOLID
 70
1
 71
0
 91
1
 92
1
 93
4
 72
1
 10
-9.3999999999999915
 20
-9.6000000000000121
 11
-7.3999999999999932
 21
-7.6000000000000112
 72
1
 10
-7.3999999999999932
 20
-7.6000000000000112
 11
-7.5999999999999996
 21
-7.3999999999999995
 72
1
 10
-7.5999999999999996
 20
-7.3999999999999995
 11
-9.5999999999999943
 21
-9.4000000000000057
 72
1
 10
-9.5999999999999943
 20
-9.4000000000000057
 11
-9.3999999999999915
 21
-9.6000000000000121
 97
0
 75
0
 76
1
 98
0
1001
ACAD
1010
0.0
1020
0.0
1030
0
  0
LINE
  5
1A9
100
AcDbEntity
100
AcDbLine
  8
0
 62
256
370
-1
 48
1.0
  6
ByLayer
 10
9.3999999999999986
 20
-9.6000000000000014
 30
0.0
 11
7.3999999999999986
 21
-7.6000000000000014
 31
0.0
  0
LINE
  5
1AA
100
AcDbEntity
100
AcDbLine
  8
0
 62
256
370
-1
 48
1.0
  6
ByLayer
 10
5.0
 20
-4.9999999999999991
 30
0.0
 11
7.0
 21
-8.0
 31
0.0
  0
LINE
  5
1AB
100
AcDbEntity
100
AcDbLine
  8
0
 62
256
370
-1
 48
1.0
  6
ByLayer
 10
7.0
 20
-8.0
 30
0.0
 11
8.0
 21
-6.9999999999999991
 31
0.0
  0
LINE
  5
1AC
100
AcDbEntity
100
AcDbLine
  8
0
 62
256
370
-1
 48
1.0
  6
ByLayer
 10
8.0
 20
-6.9999999999999991
 30
0.0
 11
5.0
 21
-4.9999999999999991
 31
0.0
  0
MTEXT
  5
1AD
100
AcDbEntity
100
AcDbMText
  8
0
 62
256
370
-1
 48
1.0
  6
ByLayer
 10
0.0
 20
-120.0
 30
0.0
 40
1.0
 41
0.0
 71
5
 72
1
  1
\H2;Set focus on center of the box assigned by arrows (camera at an angle of 45 degrees)
  7
textstyle70
 50
0.0
 73
2
 44
1.0
  0
MTEXT
  5
1AE
100
AcDbEntity
100
AcDbMText
  8
0
 62
256
370
-1
 48
1.0
  6
ByLayer
 10
0.0
 20
130.0
 30
0.0
 40
1.0
 41
0.0
 71
2
 72
1
  1
\H2;DIGITAL CAMERA FOCUS TEST CHART\P\H1;ver. 1.150827
  7
textstyle71
 50
0.0
 73
2
 44
1.0
  0
MTEXT
  5
1AF
100
AcDbEntity
100
AcDbMText
  8
0
 62
256
370
-1
 48
1.0
  6
ByLayer
 10
0.0
 20
-130.0
 30
0.0
 40
1.0
 41
0.0
 71
2
 72
1
  1
\H1.5;\U+00a92015 Janusz Kostorz
  7
textstyle72
 50
0.0
 73
2
 44
1.0
  0
LINE
  5
1B0
100
AcDbEntity
100
AcDbLine
  8
0
 62
256
370
-1
 48
1.0
  6
ByLayer
 10
45.0
 20
1.0
 30
0.0
 11
50.0
 21
1.0
 31
0.0
  0
LINE
  5
1B1
100
AcDbEntity
100
AcDbLine
  8
0
 62
256
370
-1
 48
1.0
  6
ByLayer
 10
44.9999999999999929
 20
0.4999999999999999
 30
0.0
 11
49.9999999999999929
 21
0.4999999999999999
 31
0.0
  0
LINE
  5
1B2
100
AcDbEntity
100
AcDbLine
  8
0
 62
256
370
-1
 48
1.0
  6
ByLayer
 10
45.0
 20
2.0
 30
0.0
 11
50.0
 21
2.0
 31
0.0
  0
LINE
  5
1B3
100
AcDbEntity
100
AcDbLine
  8
0
 62
256
370
-1
 48
1.0
  6
ByLayer
 10
44.9999999999999929
 20
1.5
 30
0.0
 11
49.9999999999999929
 21
1.5
 31
0.0
  0
LINE
  5
1B4
100
AcDbEntity
100
AcDbLine
  8
0
 62
256
370
-1
 48
1.0
  6
ByLayer
 10
45.0
 20
3.0
 30
0.0
 11
50.0
 21
3.0
 31
0.0
  0
LINE
  5
1B5
100
AcDbEntity
100
AcDbLine
  8
0
 62
256
370
-1
 48
1.0
  6
ByLayer
 10
44.9999999999999929
 20
2.5
 30
0.0
 11
49.9999999999999929
 21
2.5
 31
0.0
  0
LINE
  5
1B6
100
AcDbEntity
100
AcDbLine
  8
0
 62
256
370
-1
 48
1.0
  6
ByLayer
 10
45.0
 20
4.0
 30
0.0
 11
50.0
 21
4.0
 31
0.0
  0
LINE
  5
1B7
100
AcDbEntity
100
AcDbLine
  8
0
 62
256
370
-1
 48
1.0
  6
ByLayer
 10
44.9999999999999929
 20
3.5
 30
0.0
 11
49.9999999999999929
 21
3.5
 31
0.0
  0
LINE
  5
1B8
100
AcDbEntity
100
AcDbLine
  8
0
 62
256
370
-1
 48
1.0
  6
ByLayer
 10
45.0
 20
5.0
 30
0.0
 11
50.0
 21
5.0
 31
0.0
  0
LINE
  5
1B9
100
AcDbEntity
100
AcDbLine
  8
0
 62
256
370
-1
 48
1.0
  6
ByLayer
 10
44.9999999999999929
 20
4.5
 30
0.0
 11
49.9999999999999929
 21
4.5
 31
0.0
  0
LINE
  5
1BA
100
AcDbEntity
100
AcDbLine
  8
0
 62
256
370
-1
 48
1.0
  6
ByLayer
 10
45.0
 20
6.0
 30
0.0
 11
50.0
 21
6.0
 31
0.0
  0
LINE
  5
1BB
100
AcDbEntity
100
AcDbLine
  8
0
 62
256
370
-1
 48
1.0
  6
ByLayer
 10
44.9999999999999929
 20
5.5
 30
0.0
 11
49.9999999999999929
 21
5.5
 31
0.0
  0
LINE
  5
1BC
100
AcDbEntity
100
AcDbLine
  8
0
 62
256
370
-1
 48
1.0
  6
ByLayer
 10
45.0
 20
7.0
 30
0.0
 11
50.0
 21
7.0
 31
0.0
  0
LINE
  5
1BD
100
AcDbEntity
100
AcDbLine
  8
0
 62
256
370
-1
 48
1.0
  6
ByLayer
 10
44.9999999999999929
 20
6.5
 30
0.0
 11
49.9999999999999929
 21
6.5
 31
0.0
  0
LINE
  5
1BE
100
AcDbEntity
100
AcDbLine
  8
0
 62
256
370
-1
 48
1.0
  6
ByLayer
 10
45.0
 20
8.0
 30
0.0
 11
50.0
 21
8.0
 31
0.0
  0
LINE
  5
1BF
100
AcDbEntity
100
AcDbLine
  8
0
 62
256
370
-1
 48
1.0
  6
ByLayer
 10
44.9999999999999929
 20
7.5
 30
0.0
 11
49.9999999999999929
 21
7.5
 31
0.0
  0
LINE
  5
1C0
100
AcDbEntity
100
AcDbLine
  8
0
 62
256
370
-1
 48
1.0
  6
ByLayer
 10
45.0
 20
9.0
 30
0.0
 11
50.0
 21
9.0
 31
0.0
  0
LINE
  5
1C1
100
AcDbEntity
100
AcDbLine
  8
0
 62
256
370
-1
 48
1.0
  6
ByLayer
 10
44.9999999999999929
 20
8.5
 30
0.0
 11
49.9999999999999929
 21
8.5
 31
0.0
  0
LINE
  5
1C2
100
AcDbEntity
100
AcDbLine
  8
0
 62
256
370
-1
 48
1.0
  6
ByLayer
 10
45.0
 20
10.0
 30
0.0
 11
50.0
 21
10.0
 31
0.0
  0
LINE
  5
1C3
100
AcDbEntity
100
AcDbLine
  8
0
 62
256
370
-1
 48
1.0
  6
ByLayer
 10
44.9999999999999929
 20
9.5
 30
0.0
 11
49.9999999999999929
 21
9.5
 31
0.0
  0
LINE
  5
1C4
100
AcDbEntity
100
AcDbLine
  8
0
 62
256
370
-1
 48
1.0
  6
ByLayer
 10
45.0
 20
11.0
 30
0.0
 11
50.0
 21
11.0
 31
0.0
  0
LINE
  5
1C5
100
AcDbEntity
100
AcDbLine
  8
0
 62
256
370
-1
 48
1.0
  6
ByLayer
 10
44.9999999999999929
 20
10.5
 30
0.0
 11
49.9999999999999929
 21
10.5
 31
0.0
  0
LINE
  5
1C6
100
AcDbEntity
100
AcDbLine
  8
0
 62
256
370
-1
 48
1.0
  6
ByLayer
 10
45.0
 20
12.0
 30
0.0
 11
50.0
 21
12.0
 31
0.0
  0
LINE
  5
1C7
100
AcDbEntity
100
AcDbLine
  8
0
 62
256
370
-1
 48
1.0
  6
ByLayer
 10
44.9999999999999929
 20
11.5
 30
0.0
 11
49.9999999999999929
 21
11.5
 31
0.0
  0
LINE
  5
1C8
100
AcDbEntity
100
AcDbLine
  8
0
 62
256
370
-1
 48
1.0
  6
ByLayer
 10
45.0
 20
13.0
 30
0.0
 11
50.0
 21
13.0
 31
0.0
  0
LINE
  5
1C9
100
AcDbEntity
100
AcDbLine
  8
0
 62
256
370
-1
 48
1.0
  6
ByLayer
 10
44.9999999999999929
 20
12.5
 30
0.0
 11
49.9999999999999929
 21
12.5
 31
0.0
  0
LINE
  5
1CA
100
AcDbEntity
100
AcDbLine
  8
0
 62
256
370
-1
 48
1.0
  6
ByLayer
 10
45.0
 20
14.0
 30
0.0
 11
50.0
 21
14.0
 31
0.0
  0
LINE
  5
1CB
100
AcDbEntity
100
AcDbLine
  8
0
 62
256
370
-1
 48
1.0
  6
ByLayer
 10
44.9999999999999929
 20
13.5
 30
0.0
 11
49.9999999999999929
 21
13.5
 31
0.0
  0
LINE
  5
1CC
100
AcDbEntity
100
AcDbLine
  8
0
 62
256
370
-1
 48
1.0
  6
ByLayer
 10
45.0
 20
15.0
 30
0.0
 11
50.0
 21
15.0
 31
0.0
  0
LINE
  5
1CD
100
AcDbEntity
100
AcDbLine
  8
0
 62
256
370
-1
 48
1.0
  6
ByLayer
 10
44.9999999999999929
 20
14.5
 30
0.0
 11
49.9999999999999929
 21
14.5
 31
0.0
  0
LINE
  5
1CE
100
AcDbEntity
100
AcDbLine
  8
0
 62
256
370
-1
 48
1.0
  6
ByLayer
 10
45.0
 20
-8.9999999999999982
 30
0.0
 11
50.0
 21
-9.0
 31
0.0
  0
LINE
  5
1CF
100
AcDbEntity
100
AcDbLine
  8
0
 62
256
370
-1
 48
1.0
  6
ByLayer
 10
44.9999999999999929
 20
-8.4999999999999982
 30
0.0
 11
49.9999999999999929
 21
-8.5
 31
0.0
  0
LINE
  5
1D0
100
AcDbEntity
100
AcDbLine
  8
0
 62
256
370
-1
 48
1.0
  6
ByLayer
 10
45.0
 20
-9.9999999999999982
 30
0.0
 11
50.0
 21
-9.9999999999999982
 31
0.0
  0
LINE
  5
1D1
100
AcDbEntity
100
AcDbLine
  8
0
 62
256
370
-1
 48
1.0
  6
ByLayer
 10
44.9999999999999929
 20
-9.5000000000000018
 30
0.0
 11
49.9999999999999929
 21
-9.5
 31
0.0
  0
LINE
  5
1D2
100
AcDbEntity
100
AcDbLine
  8
0
 62
256
370
-1
 48
1.0
  6
ByLayer
 10
45.0
 20
-11.0
 30
0.0
 11
50.0
 21
-11.0
 31
0.0
  0
LINE
  5
1D3
100
AcDbEntity
100
AcDbLine
  8
0
 62
256
370
-1
 48
1.0
  6
ByLayer
 10
45.0
 20
-10.5000000000000018
 30
0.0
 11
49.9999999999999929
 21
-10.5
 31
0.0
  0
LINE
  5
1D4
100
AcDbEntity
100
AcDbLine
  8
0
 62
256
370
-1
 48
1.0
  6
ByLayer
 10
45.0
 20
-12.0
 30
0.0
 11
50.0
 21
-12.0
 31
0.0
  0
LINE
  5
1D5
100
AcDbEntity
100
AcDbLine
  8
0
 62
256
370
-1
 48
1.0
  6
ByLayer
 10
44.9999999999999929
 20
-11.5000000000000018
 30
0.0
 11
49.9999999999999929
 21
-11.5
 31
0.0
  0
LINE
  5
1D6
100
AcDbEntity
100
AcDbLine
  8
0
 62
256
370
-1
 48
1.0
  6
ByLayer
 10
45.0
 20
-12.9999999999999982
 30
0.0
 11
50.0
 21
-13.0
 31
0.0
  0
LINE
  5
1D7
100
AcDbEntity
100
AcDbLine
  8
0
 62
256
370
-1
 48
1.0
  6
ByLayer
 10
44.9999999999999929
 20
-12.5
 30
0.0
 11
49.9999999999999929
 21
-12.5
 31
0.0
  0
LINE
  5
1D8
100
AcDbEntity
100
AcDbLine
  8
0
 62
256
370
-1
 48
1.0
  6
ByLayer
 10
45.0
 20
-14.0
 30
0.0
 11
50.0
 21
-14.0000000000000018
 31
0.0
  0
LINE
  5
1D9
100
AcDbEntity
100
AcDbLine
  8
0
 62
256
370
-1
 48
1.0
  6
ByLayer
 10
44.9999999999999929
 20
-13.5000000000000018
 30
0.0
 11
49.9999999999999929
 21
-13.5
 31
0.0
  0
LINE
  5
1DA
100
AcDbEntity
100
AcDbLine
  8
0
 62
256
370
-1
 48
1.0
  6
ByLayer
 10
45.0
 20
-15.0000000000000018
 30
0.0
 11
50.0
 21
-15.0
 31
0.0
  0
LINE
  5
1DB
100
AcDbEntity
100
AcDbLine
  8
0
 62
256
370
-1
 48
1.0
  6
ByLayer
 10
44.9999999999999929
 20
-14.4999999999999982
 30
0.0
 11
49.9999999999999929
 21
-14.5
 31
0.0
  0
LINE
  5
1DC
100
AcDbEntity
100
AcDbLine
  8
0
 62
256
370
-1
 48
1.0
  6
ByLayer
 10
45.0
 20
-1.0000000000000047
 30
0.0
 11
50.0
 21
-1.0000000000000004
 31
0.0
  0
LINE
  5
1DD
100
AcDbEntity
100
AcDbLine
  8
0
 62
256
370
-1
 48
1.0
  6
ByLayer
 10
44.9999999999999929
 20
-0.4999999999999916
 30
0.0
 11
49.9999999999999929
 21
-0.4999999999999993
 31
0.0
  0
LINE
  5
1DE
100
AcDbEntity
100
AcDbLine
  8
0
 62
256
370
-1
 48
1.0
  6
ByLayer
 10
45.0
 20
-2.0000000000000013
 30
0.0
 11
50.0
 21
-2.0000000000000004
 31
0.0
  0
LINE
  5
1DF
100
AcDbEntity
100
AcDbLine
  8
0
 62
256
370
-1
 48
1.0
  6
ByLayer
 10
44.9999999999999929
 20
-1.5000000000000004
 30
0.0
 11
49.9999999999999929
 21
-1.4999999999999998
 31
0.0
  0
LINE
  5
1E0
100
AcDbEntity
100
AcDbLine
  8
0
 62
256
370
-1
 48
1.0
  6
ByLayer
 10
45.0
 20
-3.0000000000000009
 30
0.0
 11
50.0
 21
-2.9999999999999996
 31
0.0
  0
LINE
  5
1E1
100
AcDbEntity
100
AcDbLine
  8
0
 62
256
370
-1
 48
1.0
  6
ByLayer
 10
44.9999999999999929
 20
-2.5000000000000018
 30
0.0
 11
49.9999999999999929
 21
-2.4999999999999996
 31
0.0
  0
LINE
  5
1E2
100
AcDbEntity
100
AcDbLine
  8
0
 62
256
370
-1
 48
1.0
  6
ByLayer
 10
45.0
 20
-3.9999999999999978
 30
0.0
 11
50.0
 21
-4.0
 31
0.0
  0
LINE
  5
1E3
100
AcDbEntity
100
AcDbLine
  8
0
 62
256
370
-1
 48
1.0
  6
ByLayer
 10
44.9999999999999929
 20
-3.5000000000000013
 30
0.0
 11
49.9999999999999929
 21
-3.4999999999999991
 31
0.0
  0
LINE
  5
1E4
100
AcDbEntity
100
AcDbLine
  8
0
 62
256
370
-1
 48
1.0
  6
ByLayer
 10
45.0
 20
-5.0000000000000009
 30
0.0
 11
50.0
 21
-5.0
 31
0.0
  0
LINE
  5
1E5
100
AcDbEntity
100
AcDbLine
  8
0
 62
256
370
-1
 48
1.0
  6
ByLayer
 10
44.9999999999999929
 20
-4.4999999999999982
 30
0.0
 11
49.9999999999999929
 21
-4.5
 31
0.0
  0
LINE
  5
1E6
100
AcDbEntity
100
AcDbLine
  8
0
 62
256
370
-1
 48
1.0
  6
ByLayer
 10
45.0
 20
-6.0000000000000018
 30
0.0
 11
50.0
 21
-6.0
 31
0.0
  0
LINE
  5
1E7
100
AcDbEntity
100
AcDbLine
  8
0
 62
256
370
-1
 48
1.0
  6
ByLayer
 10
44.9999999999999929
 20
-5.5000000000000009
 30
0.0
 11
49.9999999999999929
 21
-5.4999999999999991
 31
0.0
  0
LINE
  5
1E8
100
AcDbEntity
100
AcDbLine
  8
0
 62
256
370
-1
 48
1.0
  6
ByLayer
 10
45.0
 20
-7.0000000000000009
 30
0.0
 11
50.0
 21
-7.0
 31
0.0
  0
LINE
  5
1E9
100
AcDbEntity
100
AcDbLine
  8
0
 62
256
370
-1
 48
1.0
  6
ByLayer
 10
44.9999999999999929
 20
-6.5000000000000009
 30
0.0
 11
49.9999999999999929
 21
-6.5
 31
0.0
  0
LINE
  5
1EA
100
AcDbEntity
100
AcDbLine
  8
0
 62
256
370
-1
 48
1.0
  6
ByLayer
 10
45.0
 20
-8.0
 30
0.0
 11
50.0
 21
-8.0
 31
0.0
  0
LINE
  5
1EB
100
AcDbEntity
100
AcDbLine
  8
0
 62
256
370
-1
 48
1.0
  6
ByLayer
 10
44.9999999999999929
 20
-7.5
 30
0.0
 11
49.9999999999999929
 21
-7.5
 31
0.0
  0
LINE
  5
1EC
100
AcDbEntity
100
AcDbLine
  8
0
 62
256
370
-1
 48
1.0
  6
ByLayer
 10
-45.0000000000000071
 20
9.9999999999999964
 30
0.0
 11
-49.9999999999999929
 21
10.0000000000001066
 31
0.0
  0
LINE
  5
1ED
100
AcDbEntity
100
AcDbLine
  8
0
 62
256
370
-1
 48
1.0
  6
ByLayer
 10
-44.9999999999999929
 20
9.4999999999999662
 30
0.0
 11
-49.9999999999999929
 21
9.4999999999999538
 31
0.0
  0
LINE
  5
1EE
100
AcDbEntity
100
AcDbLine
  8
0
 62
256
370
-1
 48
1.0
  6
ByLayer
 10
-44.9999999999999929
 20
11.0000000000000675
 30
0.0
 11
-50.0
 21
10.9999999999999645
 31
0.0
  0
LINE
  5
1EF
100
AcDbEntity
100
AcDbLine
  8
0
 62
256
370
-1
 48
1.0
  6
ByLayer
 10
-44.9999999999999929
 20
10.499999999999968
 30
0.0
 11
-49.9999999999999858
 21
10.500000000000048
 31
0.0
  0
LINE
  5
1F0
100
AcDbEntity
100
AcDbLine
  8
0
 62
256
370
-1
 48
1.0
  6
ByLayer
 10
-45.0
 20
12.0000000000000036
 30
0.0
 11
-50.0
 21
12.0000000000000231
 31
0.0
  0
LINE
  5
1F1
100
AcDbEntity
100
AcDbLine
  8
0
 62
256
370
-1
 48
1.0
  6
ByLayer
 10
-44.9999999999999858
 20
11.4999999999999751
 30
0.0
 11
-49.9999999999999929
 21
11.5000000000000213
 31
0.0
  0
LINE
  5
1F2
100
AcDbEntity
100
AcDbLine
  8
0
 62
256
370
-1
 48
1.0
  6
ByLayer
 10
-44.9999999999999929
 20
13.0000000000000497
 30
0.0
 11
-50.0000000000000071
 21
12.9999999999999645
 31
0.0
  0
LINE
  5
1F3
100
AcDbEntity
100
AcDbLine
  8
0
 62
256
370
-1
 48
1.0
  6
ByLayer
 10
-44.9999999999999929
 20
12.4999999999999787
 30
0.0
 11
-49.9999999999999929
 21
12.5000000000000124
 31
0.0
  0
LINE
  5
1F4
100
AcDbEntity
100
AcDbLine
  8
0
 62
256
370
-1
 48
1.0
  6
ByLayer
 10
-44.9999999999999929
 20
14.000000000000048
 30
0.0
 11
-49.9999999999999929
 21
14.0000000000000444
 31
0.0
  0
LINE
  5
1F5
100
AcDbEntity
100
AcDbLine
  8
0
 62
256
370
-1
 48
1.0
  6
ByLayer
 10
-44.9999999999999929
 20
13.4999999999999787
 30
0.0
 11
-49.9999999999999929
 21
13.5000000000000124
 31
0.0
  0
LINE
  5
1F6
100
AcDbEntity
100
AcDbLine
  8
0
 62
256
370
-1
 48
1.0
  6
ByLayer
 10
-45.0
 20
15.0000000000000018
 30
0.0
 11
-49.9999999999999858
 21
15.0000000000000853
 31
0.0
  0
LINE
  5
1F7
100
AcDbEntity
100
AcDbLine
  8
0
 62
256
370
-1
 48
1.0
  6
ByLayer
 10
-44.9999999999999929
 20
14.499999999999968
 30
0.0
 11
-49.9999999999999858
 21
14.5000000000000746
 31
0.0
  0
LINE
  5
1F8
100
AcDbEntity
100
AcDbLine
  8
0
 62
256
370
-1
 48
1.0
  6
ByLayer
 10
-45.0
 20
-8.9999999999999911
 30
0.0
 11
-50.0000000000000071
 21
-8.9999999999999769
 31
0.0
  0
LINE
  5
1F9
100
AcDbEntity
100
AcDbLine
  8
0
 62
256
370
-1
 48
1.0
  6
ByLayer
 10
-44.9999999999999929
 20
-8.5000000000000053
 30
0.0
 11
-49.9999999999999858
 21
-8.4999999999999876
 31
0.0
  0
LINE
  5
1FA
100
AcDbEntity
100
AcDbLine
  8
0
 62
256
370
-1
 48
1.0
  6
ByLayer
 10
-45.0000000000000071
 20
-9.9999999999999787
 30
0.0
 11
-50.0
 21
-10.0000000000000036
 31
0.0
  0
LINE
  5
1FB
100
AcDbEntity
100
AcDbLine
  8
0
 62
256
370
-1
 48
1.0
  6
ByLayer
 10
-44.9999999999999929
 20
-9.5000000000000142
 30
0.0
 11
-49.9999999999999858
 21
-9.5000000000000124
 31
0.0
  0
LINE
  5
1FC
100
AcDbEntity
100
AcDbLine
  8
0
 62
256
370
-1
 48
1.0
  6
ByLayer
 10
-45.0000000000000071
 20
-10.9999999999999893
 30
0.0
 11
-50.0
 21
-10.9999999999999893
 31
0.0
  0
LINE
  5
1FD
100
AcDbEntity
100
AcDbLine
  8
0
 62
256
370
-1
 48
1.0
  6
ByLayer
 10
-45.0
 20
-10.4999999999999929
 30
0.0
 11
-50.0
 21
-10.4999999999999822
 31
0.0
  0
LINE
  5
1FE
100
AcDbEntity
100
AcDbLine
  8
0
 62
256
370
-1
 48
1.0
  6
ByLayer
 10
-45.0
 20
-11.9999999999999964
 30
0.0
 11
-50.0000000000000142
 21
-11.9999999999999716
 31
0.0
  0
LINE
  5
1FF
100
AcDbEntity
100
AcDbLine
  8
0
 62
256
370
-1
 48
1.0
  6
ByLayer
 10
-45.0
 20
-11.4999999999999787
 30
0.0
 11
-50.0
 21
-11.4999999999999751
 31
0.0
  0
LINE
  5
200
100
AcDbEntity
100
AcDbLine
  8
0
 62
256
370
-1
 48
1.0
  6
ByLayer
 10
-45.0
 20
-13.0000000000000071
 30
0.0
 11
-49.9999999999999929
 21
-13.0000000000000249
 31
0.0
  0
LINE
  5
201
100
AcDbEntity
100
AcDbLine
  8
0
 62
256
370
-1
 48
1.0
  6
ByLayer
 10
-44.9999999999999929
 20
-12.4999999999999929
 30
0.0
 11
-50.0
 21
-12.4999999999999787
 31
0.0
  0
LINE
  5
202
100
AcDbEntity
100
AcDbLine
  8
0
 62
256
370
-1
 48
1.0
  6
ByLayer
 10
-45.0
 20
-13.9999999999999964
 30
0.0
 11
-50.0
 21
-13.9999999999999929
 31
0.0
  0
LINE
  5
203
100
AcDbEntity
100
AcDbLine
  8
0
 62
256
370
-1
 48
1.0
  6
ByLayer
 10
-45.0000000000000071
 20
-13.499999999999968
 30
0.0
 11
-49.9999999999999858
 21
-13.5000000000000107
 31
0.0
  0
LINE
  5
204
100
AcDbEntity
100
AcDbLine
  8
0
 62
256
370
-1
 48
1.0
  6
ByLayer
 10
-44.9999999999999929
 20
-15.0000000000000071
 30
0.0
 11
-50.0
 21
-14.9999999999999929
 31
0.0
  0
LINE
  5
205
100
AcDbEntity
100
AcDbLine
  8
0
 62
256
370
-1
 48
1.0
  6
ByLayer
 10
-45.0000000000000071
 20
-14.4999999999999645
 30
0.0
 11
-49.9999999999999929
 21
-14.4999999999999929
 31
0.0
  0
LINE
  5
206
100
AcDbEntity
100
AcDbLine
  8
0
 62
256
370
-1
 48
1.0
  6
ByLayer
 10
-45.0
 20
-1.0000000000000266
 30
0.0
 11
-50.0
 21
-0.9999999999999849
 31
0.0
  0
LINE
  5
207
100
AcDbEntity
100
AcDbLine
  8
0
 62
256
370
-1
 48
1.0
  6
ByLayer
 10
-44.9999999999999929
 20
-0.4999999999999947
 30
0.0
 11
-49.9999999999999929
 21
-0.4999999999999885
 31
0.0
  0
LINE
  5
208
100
AcDbEntity
100
AcDbLine
  8
0
 62
256
370
-1
 48
1.0
  6
ByLayer
 10
-45.0
 20
-2.0000000000000249
 30
0.0
 11
-50.0
 21
-2.0000000000000195
 31
0.0
  0
LINE
  5
209
100
AcDbEntity
100
AcDbLine
  8
0
 62
256
370
-1
 48
1.0
  6
ByLayer
 10
-44.9999999999999929
 20
-1.4999999999999565
 30
0.0
 11
-49.9999999999999929
 21
-1.4999999999999867
 31
0.0
  0
LINE
  5
20A
100
AcDbEntity
100
AcDbLine
  8
0
 62
256
370
-1
 48
1.0
  6
ByLayer
 10
-45.0
 20
-2.9999999999999805
 30
0.0
 11
-50.0
 21
-3.000000000000016
 31
0.0
  0
LINE
  5
20B
100
AcDbEntity
100
AcDbLine
  8
0
 62
256
370
-1
 48
1.0
  6
ByLayer
 10
-44.9999999999999929
 20
-2.5000000000000284
 30
0.0
 11
-49.9999999999999929
 21
-2.5000000000000053
 31
0.0
  0
LINE
  5
20C
100
AcDbEntity
100
AcDbLine
  8
0
 62
256
370
-1
 48
1.0
  6
ByLayer
 10
-45.0000000000000071
 20
-3.9999999999999929
 30
0.0
 11
-50.0
 21
-4.0000000000000213
 31
0.0
  0
LINE
  5
20D
100
AcDbEntity
100
AcDbLine
  8
0
 62
256
370
-1
 48
1.0
  6
ByLayer
 10
-44.9999999999999929
 20
-3.5000000000000249
 30
0.0
 11
-49.9999999999999929
 21
-3.4999999999999662
 31
0.0
  0
LINE
  5
20E
100
AcDbEntity
100
AcDbLine
  8
0
 62
256
370
-1
 48
1.0
  6
ByLayer
 10
-45.0000000000000071
 20
-4.9999999999999893
 30
0.0
 11
-50.0
 21
-5.0000000000000053
 31
0.0
  0
LINE
  5
20F
100
AcDbEntity
100
AcDbLine
  8
0
 62
256
370
-1
 48
1.0
  6
ByLayer
 10
-45.0
 20
-4.4999999999999662
 30
0.0
 11
-49.9999999999999929
 21
-4.5
 31
0.0
  0
LINE
  5
210
100
AcDbEntity
100
AcDbLine
  8
0
 62
256
370
-1
 48
1.0
  6
ByLayer
 10
-45.0000000000000071
 20
-5.9999999999999858
 30
0.0
 11
-50.0
 21
-6.0000000000000071
 31
0.0
  0
LINE
  5
211
100
AcDbEntity
100
AcDbLine
  8
0
 62
256
370
-1
 48
1.0
  6
ByLayer
 10
-44.9999999999999929
 20
-5.499999999999984
 30
0.0
 11
-49.9999999999999929
 21
-5.4999999999999876
 31
0.0
  0
LINE
  5
212
100
AcDbEntity
100
AcDbLine
  8
0
 62
256
370
-1
 48
1.0
  6
ByLayer
 10
-45.0
 20
-7.0000000000000089
 30
0.0
 11
-50.0
 21
-6.9999999999999822
 31
0.0
  0
LINE
  5
213
100
AcDbEntity
100
AcDbLine
  8
0
 62
256
370
-1
 48
1.0
  6
ByLayer
 10
-44.9999999999999929
 20
-6.4999999999999893
 30
0.0
 11
-49.9999999999999929
 21
-6.4999999999999947
 31
0.0
  0
LINE
  5
214
100
AcDbEntity
100
AcDbLine
  8
0
 62
256
370
-1
 48
1.0
  6
ByLayer
 10
-45.0000000000000071
 20
-7.9999999999999822
 30
0.0
 11
-50.0000000000000071
 21
-7.9999999999999929
 31
0.0
  0
LINE
  5
215
100
AcDbEntity
100
AcDbLine
  8
0
 62
256
370
-1
 48
1.0
  6
ByLayer
 10
-44.9999999999999929
 20
-7.4999999999999769
 30
0.0
 11
-49.9999999999999929
 21
-7.4999999999999947
 31
0.0
  0
LINE
  5
216
100
AcDbEntity
100
AcDbLine
  8
0
 62
256
370
-1
 48
1.0
  6
ByLayer
 10
-45.0
 20
0.9999999999999547
 30
0.0
 11
-50.0
 21
1.0000000000000151
 31
0.0
  0
LINE
  5
217
100
AcDbEntity
100
AcDbLine
  8
0
 62
256
370
-1
 48
1.0
  6
ByLayer
 10
-44.9999999999999929
 20
0.500000000000048
 30
0.0
 11
-49.9999999999999929
 21
0.5000000000000027
 31
0.0
  0
LINE
  5
218
100
AcDbEntity
100
AcDbLine
  8
0
 62
256
370
-1
 48
1.0
  6
ByLayer
 10
-45.0
 20
1.9999999999999858
 30
0.0
 11
-50.0
 21
1.9999999999999609
 31
0.0
  0
LINE
  5
219
100
AcDbEntity
100
AcDbLine
  8
0
 62
256
370
-1
 48
1.0
  6
ByLayer
 10
-44.9999999999999929
 20
1.5000000000000142
 30
0.0
 11
-49.9999999999999929
 21
1.5000000000000204
 31
0.0
  0
LINE
  5
21A
100
AcDbEntity
100
AcDbLine
  8
0
 62
256
370
-1
 48
1.0
  6
ByLayer
 10
-45.0
 20
3.0000000000000679
 30
0.0
 11
-50.0
 21
2.9999999999999294
 31
0.0
  0
LINE
  5
21B
100
AcDbEntity
100
AcDbLine
  8
0
 62
256
370
-1
 48
1.0
  6
ByLayer
 10
-44.9999999999999929
 20
2.500000000000056
 30
0.0
 11
-49.9999999999999929
 21
2.5000000000000719
 31
0.0
  0
LINE
  5
21C
100
AcDbEntity
100
AcDbLine
  8
0
 62
256
370
-1
 48
1.0
  6
ByLayer
 10
-45.0
 20
3.9999999999999258
 30
0.0
 11
-50.0
 21
3.9999999999999472
 31
0.0
  0
LINE
  5
21D
100
AcDbEntity
100
AcDbLine
  8
0
 62
256
370
-1
 48
1.0
  6
ByLayer
 10
-44.9999999999999929
 20
3.5000000000000648
 30
0.0
 11
-49.9999999999999929
 21
3.4999999999999756
 31
0.0
  0
LINE
  5
21E
100
AcDbEntity
100
AcDbLine
  8
0
 62
256
370
-1
 48
1.0
  6
ByLayer
 10
-45.0
 20
4.9999999999998348
 30
0.0
 11
-50.0
 21
5.0000000000002292
 31
0.0
  0
LINE
  5
21F
100
AcDbEntity
100
AcDbLine
  8
0
 62
256
370
-1
 48
1.0
  6
ByLayer
 10
-44.9999999999999929
 20
4.5000000000000044
 30
0.0
 11
-49.9999999999999929
 21
4.5000000000001625
 31
0.0
  0
LINE
  5
220
100
AcDbEntity
100
AcDbLine
  8
0
 62
256
370
-1
 48
1.0
  6
ByLayer
 10
-45.0
 20
6.0000000000000169
 30
0.0
 11
-50.0
 21
6.0000000000000187
 31
0.0
  0
LINE
  5
221
100
AcDbEntity
100
AcDbLine
  8
0
 62
256
370
-1
 48
1.0
  6
ByLayer
 10
-44.9999999999999929
 20
5.5000000000000009
 30
0.0
 11
-49.9999999999999929
 21
5.5000000000002141
 31
0.0
  0
LINE
  5
222
100
AcDbEntity
100
AcDbLine
  8
0
 62
256
370
-1
 48
1.0
  6
ByLayer
 10
-45.0
 20
7.0000000000001865
 30
0.0
 11
-50.0
 21
6.9999999999997948
 31
0.0
  0
LINE
  5
223
100
AcDbEntity
100
AcDbLine
  8
0
 62
256
370
-1
 48
1.0
  6
ByLayer
 10
-44.9999999999999929
 20
6.5000000000000604
 30
0.0
 11
-49.9999999999999929
 21
6.4999999999997655
 31
0.0
  0
LINE
  5
224
100
AcDbEntity
100
AcDbLine
  8
0
 62
256
370
-1
 48
1.0
  6
ByLayer
 10
-45.0
 20
8.0000000000000959
 30
0.0
 11
-50.0
 21
8.0000000000000782
 31
0.0
  0
LINE
  5
225
100
AcDbEntity
100
AcDbLine
  8
0
 62
256
370
-1
 48
1.0
  6
ByLayer
 10
-44.9999999999999929
 20
7.5000000000000169
 30
0.0
 11
-49.9999999999999929
 21
7.4999999999998623
 31
0.0
  0
LINE
  5
226
100
AcDbEntity
100
AcDbLine
  8
0
 62
256
370
-1
 48
1.0
  6
ByLayer
 10
-45.0
 20
8.9999999999999147
 30
0.0
 11
-50.0
 21
9.0000000000000959
 31
0.0
  0
LINE
  5
227
100
AcDbEntity
100
AcDbLine
  8
0
 62
256
370
-1
 48
1.0
  6
ByLayer
 10
-44.9999999999999929
 20
8.4999999999999574
 30
0.0
 11
-49.9999999999999858
 21
8.5000000000000924
 31
0.0
  0
LINE
  5
228
100
AcDbEntity
100
AcDbLine
  8
0
 62
256
370
-1
 48
1.0
  6
ByLayer
 10
45.0
 20
0.0
 30
0.0
 11
50.0
 21
0.0
 31
0.0
  0
LINE
  5
229
100
AcDbEntity
100
AcDbLine
  8
0
 62
256
370
-1
 48
1.0
  6
ByLayer
 10
-50.0
 20
0.0
 30
0.0
 11
-45.0
 21
0.0
 31
0.0
  0
ENDSEC
  0
SECTION
  2
OBJECTS
  0
DICTIONARY
  5
C
100
AcDbDictionary
280
0
281
1
  3
ACAD_GROUP
350
D
  3
ACAD_LAYOUT
350
1A
  3
ACAD_MLINESTYLE
350
17
  3
ACAD_PLOTSETTINGS
350
19
  3
ACAD_PLOTSTYLENAME
350
E
  3
AcDbVariableDictionary
350
22A
  3
QCAD_OBJECTS
350
22B
  0
DICTIONARY
  5
D
100
AcDbDictionary
280
0
281
1
  0
ACDBDICTIONARYWDFLT
  5
E
100
AcDbDictionary
281
1
  3
Normal
350
F
100
AcDbDictionaryWithDefault
340
F
  0
ACDBPLACEHOLDER
  5
F
  0
DICTIONARY
  5
17
100
AcDbDictionary
280
0
281
1
  3
Standard
350
18
  0
MLINESTYLE
  5
18
100
AcDbMlineStyle
  2
STANDARD
 70
0
  3

 62
256
 51
90.0
 52
90.0
 71
2
 49
0.5
 62
256
  6
BYLAYER
 49
-0.5
 62
256
  6
BYLAYER
  0
DICTIONARY
  5
19
100
AcDbDictionary
280
0
281
1
  0
DICTIONARY
  5
1A
100
AcDbDictionary
281
1
  3
Layout1
350
1E
  3
Layout2
350
26
  3
Model
350
22
  0
LAYOUT
  5
1E
100
AcDbPlotSettings
  1

  2
none_device
  4

  6

 40
0.0
 41
0.0
 42
0.0
 43
0.0
 44
0.0
 45
0.0
 46
0.0
 47
0.0
 48
0.0
 49
0.0
140
0.0
141
0.0
142
1.0
143
1.0
 70
688
 72
0
 73
0
 74
5
  7

 75
16
147
1.0
148
0.0
149
0.0
100
AcDbLayout
  1
Layout1
 70
1
 71
1
 10
0.0
 20
0.0
 11
420.0
 21
297.0
 12
0.0
 22
0.0
 32
0.0
 14
100000000000000000000.0
 24
100000000000000000000.0
 34
100000000000000000000.0
 15
-100000000000000000000.0
 25
-100000000000000000000.0
 35
-100000000000000000000.0
146
0.0
 13
0.0
 23
0.0
 33
0.0
 16
1.0
 26
0.0
 36
0.0
 17
0.0
 27
1.0
 37
0.0
 76
0
330
1B
  0
LAYOUT
  5
22
100
AcDbPlotSettings
  1

  2
none_device
  4

  6

 40
0.0
 41
0.0
 42
0.0
 43
0.0
 44
0.0
 45
0.0
 46
0.0
 47
0.0
 48
0.0
 49
0.0
140
0.0
141
0.0
142
1.0
143
1.0
 70
1712
 72
0
 73
0
 74
0
  7

 75
0
147
1.0
148
0.0
149
0.0
100
AcDbLayout
  1
Model
 70
1
 71
0
 10
0.0
 20
0.0
 11
12.0
 21
9.0
 12
0.0
 22
0.0
 32
0.0
 14
0.0
 24
0.0
 34
0.0
 15
0.0
 25
0.0
 35
0.0
146
0.0
 13
0.0
 23
0.0
 33
0.0
 16
1.0
 26
0.0
 36
0.0
 17
0.0
 27
1.0
 37
0.0
 76
0
330
1F
  0
LAYOUT
  5
26
100
AcDbPlotSettings
  1

  2
none_device
  4

  6

 40
0.0
 41
0.0
 42
0.0
 43
0.0
 44
0.0
 45
0.0
 46
0.0
 47
0.0
 48
0.0
 49
0.0
140
0.0
141
0.0
142
1.0
143
1.0
 70
688
 72
0
 73
0
 74
5
  7

 75
16
147
1.0
148
0.0
149
0.0
100
AcDbLayout
  1
Layout2
 70
1
 71
2
 10
0.0
 20
0.0
 11
12.0
 21
9.0
 12
0.0
 22
0.0
 32
0.0
 14
0.0
 24
0.0
 34
0.0
 15
0.0
 25
0.0
 35
0.0
146
0.0
 13
0.0
 23
0.0
 33
0.0
 16
1.0
 26
0.0
 36
0.0
 17
0.0
 27
1.0
 37
0.0
 76
0
330
23
  0
DICTIONARY
  5
22A
100
AcDbDictionary
281
1
  3
DIMASSOC
350
22D
  3
HIDETEXT
350
22C
  0
DICTIONARYVAR
  5
22C
100
DictionaryVariables
280
0
  1
2
  0
DICTIONARYVAR
  5
22D
100
DictionaryVariables
280
0
  1
1
  0
DICTIONARY
  5
22B
100
AcDbDictionary
281
1
  3
Grid/DisplayGrid00
350
22E
  3
Grid/DisplayGrid01
350
22F
  3
Grid/DisplayGrid02
350
230
  3
Grid/DisplayGrid03
350
231
  3
Grid/GridSpacingX00
350
232
  3
Grid/GridSpacingX01
350
233
  3
Grid/GridSpacingX02
350
234
  3
Grid/GridSpacingX03
350
235
  3
Grid/GridSpacingY00
350
236
  3
Grid/GridSpacingY01
350
237
  3
Grid/GridSpacingY02
350
238
  3
Grid/GridSpacingY03
350
239
  3
Grid/IsometricGrid00
350
23A
  3
Grid/IsometricGrid01
350
23B
  3
Grid/IsometricGrid02
350
23C
  3
Grid/IsometricGrid03
350
23D
  3
Grid/IsometricProjection00
350
23E
  3
Grid/IsometricProjection01
350
23F
  3
Grid/IsometricProjection02
350
240
  3
Grid/IsometricProjection03
350
241
  3
Grid/MetaGridSpacingX00
350
242
  3
Grid/MetaGridSpacingX01
350
243
  3
Grid/MetaGridSpacingX02
350
244
  3
Grid/MetaGridSpacingX03
350
245
  3
Grid/MetaGridSpacingY00
350
246
  3
Grid/MetaGridSpacingY01
350
247
  3
Grid/MetaGridSpacingY02
350
248
  3
Grid/MetaGridSpacingY03
350
249
  3
MultiPageSettings/Columns
350
24A
  3
MultiPageSettings/GlueMarginsBottom
350
24B
  3
MultiPageSettings/GlueMarginsLeft
350
24C
  3
MultiPageSettings/GlueMarginsRight
350
24D
  3
MultiPageSettings/GlueMarginsTop
350
24E
  3
MultiPageSettings/PrintCropMarks
350
24F
  3
MultiPageSettings/Rows
350
250
  3
PageSettings/OffsetX
350
251
  3
PageSettings/OffsetY
350
252
  3
PageSettings/PageOrientation
350
253
  3
PageSettings/PaperHeight
350
254
  3
PageSettings/PaperWidth
350
255
  3
PageSettings/Scale
350
256
  3
PageSettings/ShowPaperBorders
350
257
  3
UnitSettings/PaperUnit
350
258
  0
XRECORD
  5
22E
330
22B
100
AcDbXrecord
280
1
290
1
  0
XRECORD
  5
22F
330
22B
100
AcDbXrecord
280
1
290
1
  0
XRECORD
  5
230
330
22B
100
AcDbXrecord
280
1
290
1
  0
XRECORD
  5
231
330
22B
100
AcDbXrecord
280
1
290
1
  0
XRECORD
  5
232
330
22B
100
AcDbXrecord
280
1
1000
auto
  0
XRECORD
  5
233
330
22B
100
AcDbXrecord
280
1
1000
auto
  0
XRECORD
  5
234
330
22B
100
AcDbXrecord
280
1
1000
auto
  0
XRECORD
  5
235
330
22B
100
AcDbXrecord
280
1
1000
auto
  0
XRECORD
  5
236
330
22B
100
AcDbXrecord
280
1
1000
auto
  0
XRECORD
  5
237
330
22B
100
AcDbXrecord
280
1
1000
auto
  0
XRECORD
  5
238
330
22B
100
AcDbXrecord
280
1
1000
auto
  0
XRECORD
  5
239
330
22B
100
AcDbXrecord
280
1
1000
auto
  0
XRECORD
  5
23A
330
22B
100
AcDbXrecord
280
1
290
0
  0
XRECORD
  5
23B
330
22B
100
AcDbXrecord
280
1
290
0
  0
XRECORD
  5
23C
330
22B
100
AcDbXrecord
280
1
290
0
  0
XRECORD
  5
23D
330
22B
100
AcDbXrecord
280
1
290
0
  0
XRECORD
  5
23E
330
22B
100
AcDbXrecord
280
1
 90
0
  0
XRECORD
  5
23F
330
22B
100
AcDbXrecord
280
1
 90
0
  0
XRECORD
  5
240
330
22B
100
AcDbXrecord
280
1
 90
0
  0
XRECORD
  5
241
330
22B
100
AcDbXrecord
280
1
 90
0
  0
XRECORD
  5
242
330
22B
100
AcDbXrecord
280
1
1000
auto
  0
XRECORD
  5
243
330
22B
100
AcDbXrecord
280
1
1000
auto
  0
XRECORD
  5
244
330
22B
100
AcDbXrecord
280
1
1000
auto
  0
XRECORD
  5
245
330
22B
100
AcDbXrecord
280
1
1000
auto
  0
XRECORD
  5
246
330
22B
100
AcDbXrecord
280
1
1000
auto
  0
XRECORD
  5
247
330
22B
100
AcDbXrecord
280
1
1000
auto
  0
XRECORD
  5
248
330
22B
100
AcDbXrecord
280
1
1000
auto
  0
XRECORD
  5
249
330
22B
100
AcDbXrecord
280
1
1000
auto
  0
XRECORD
  5
24A
330
22B
100
AcDbXrecord
280
1
 90
1
  0
XRECORD
  5
24B
330
22B
100
AcDbXrecord
280
1
 40
10.0
  0
XRECORD
  5
24C
330
22B
100
AcDbXrecord
280
1
 40
10.0
  0
XRECORD
  5
24D
330
22B
100
AcDbXrecord
280
1
 40
10.0
  0
XRECORD
  5
24E
330
22B
100
AcDbXrecord
280
1
 40
10.0
  0
XRECORD
  5
24F
330
22B
100
AcDbXrecord
280
1
290
0
  0
XRECORD
  5
250
330
22B
100
AcDbXrecord
280
1
 90
1
  0
XRECORD
  5
251
330
22B
100
AcDbXrecord
280
1
 90
-105
  0
XRECORD
  5
252
330
22B
100
AcDbXrecord
280
1
 40
-148.5
  0
XRECORD
  5
253
330
22B
100
AcDbXrecord
280
1
1000
Portrait
  0
XRECORD
  5
254
330
22B
100
AcDbXrecord
280
1
 40
297.0
  0
XRECORD
  5
255
330
22B
100
AcDbXrecord
280
1
 40
210.0
  0
XRECORD
  5
256
330
22B
100
AcDbXrecord
280
1
1000
1:1
  0
XRECORD
  5
257
330
22B
100
AcDbXrecord
280
1
290
1
  0
XRECORD
  5
258
330
22B
100
AcDbXrecord
280
1
 90
4
  0
ENDSEC
  0
EOF
